<svg xmlns="http://www.w3.org/2000/svg" xmlns:xlink="http://www.w3.org/1999/xlink" version="1.1" class="marks" width="407" height="289" viewBox="0 0 407 289"><rect width="407" height="289" fill="white"/><g fill="none" stroke-miterlimit="10" transform="translate(92,81)"><g class="mark-group role-frame root" role="graphics-object" aria-roledescription="group mark container"><g transform="translate(0,0)"><path class="background" aria-hidden="true" d="M0,0h0v0h0Z"/><g><g class="mark-group role-row-title row-title" role="graphics-object" aria-roledescription="group mark container"><g transform="translate(-64,80)"><path class="background" aria-hidden="true" d="M0,0h0v0h0Z"/><g><g class="mark-group role-title"><g transform="translate(-22.000000000000004,0)"><path class="background" aria-hidden="true" d="M0,0h0v0h0Z" pointer-events="none"/><g><g class="mark-text role-title-text" role="graphics-symbol" aria-roledescription="title" aria-label="Title text 'workload'" pointer-events="none"><text text-anchor="middle" transform="translate(0,0) rotate(-90) translate(0,9)" font-family="Helvetica" font-size="12px" font-weight="bold" fill="#111827" opacity="1">workload</text></g></g><path class="foreground" aria-hidden="true" d="" pointer-events="none" display="none"/></g></g></g><path class="foreground" aria-hidden="true" d="" display="none"/></g></g><g class="mark-group role-column-title column-title" role="graphics-object" aria-roledescription="group mark container"><g transform="translate(110,-33)"><path class="background" aria-hidden="true" d="M0,0h0v0h0Z"/><g><g class="mark-group role-title"><g transform="translate(0,-22)"><path class="background" aria-hidden="true" d="M0,0h0v0h0Z" pointer-events="none"/><g><g class="mark-text role-title-text" role="graphics-symbol" aria-roledescription="title" aria-label="Title text 'mode'" pointer-events="none"><text text-anchor="middle" transform="translate(0,9)" font-family="Helvetica" font-size="12px" font-weight="bold" fill="#111827" opacity="1">mode</text></g></g><path class="foreground" aria-hidden="true" d="" pointer-events="none" display="none"/></g></g></g><path class="foreground" aria-hidden="true" d="" display="none"/></g></g><g class="mark-group role-row-header row_header" role="graphics-object" aria-roledescription="group mark container"><g transform="translate(0,0)"><path class="background" aria-hidden="true" d="M0,0h0v40h0Z"/><g><g class="mark-group role-axis" role="graphics-symbol" aria-roledescription="axis" aria-label="Y-axis titled 'Processes' for a discrete scale with 2 values: 2, 6"><g transform="translate(0.5,0.5)"><path class="background" aria-hidden="true" d="M0,0h0v0h0Z" pointer-events="none"/><g><g class="mark-rule role-axis-tick" pointer-events="none"><line transform="translate(0,10)" x2="-5" y2="0" stroke="#9ca3af" stroke-width="1" opacity="1"/><line transform="translate(0,30)" x2="-5" y2="0" stroke="#9ca3af" stroke-width="1" opacity="1"/></g><g class="mark-text role-axis-label" pointer-events="none"><text text-anchor="end" transform="translate(-7,14)" font-family="Helvetica" font-size="12px" fill="#111827" opacity="1">2</text><text text-anchor="end" transform="translate(-7,34)" font-family="Helvetica" font-size="12px" fill="#111827" opacity="1">6</text></g><g class="mark-rule role-axis-domain" pointer-events="none"><line transform="translate(0,0)" x2="0" y2="40" stroke="#111827" stroke-width="1" opacity="1"/></g><g class="mark-text role-axis-title" pointer-events="none"><text text-anchor="middle" transform="translate(-17.671875,20) rotate(-90) translate(0,-3)" font-family="Helvetica" font-size="12px" font-weight="bold" fill="#111827" opacity="1">Processes</text></g></g><path class="foreground" aria-hidden="true" d="" pointer-events="none" display="none"/></g></g><g class="mark-group role-title"><g transform="translate(-52.671875,20)"><path class="background" aria-hidden="true" d="M0,0h0v0h0Z" pointer-events="none"/><g><g class="mark-text role-title-text" role="graphics-symbol" aria-roledescription="title" aria-label="Title text 'Sleep'" pointer-events="none"><text text-anchor="middle" transform="translate(0,0) rotate(-90) translate(0,9)" font-family="Helvetica" font-size="12px" fill="#111827" opacity="1">Sleep</text></g></g><path class="foreground" aria-hidden="true" d="" pointer-events="none" display="none"/></g></g></g><path class="foreground" aria-hidden="true" d="" display="none"/></g><g transform="translate(0,60)"><path class="background" aria-hidden="true" d="M0,0h0v40h0Z"/><g><g class="mark-group role-axis" role="graphics-symbol" aria-roledescription="axis" aria-label="Y-axis titled 'Processes' for a discrete scale with 2 values: 2, 6"><g transform="translate(0.5,0.5)"><path class="background" aria-hidden="true" d="M0,0h0v0h0Z" pointer-events="none"/><g><g class="mark-rule role-axis-tick" pointer-events="none"><line transform="translate(0,10)" x2="-5" y2="0" stroke="#9ca3af" stroke-width="1" opacity="1"/><line transform="translate(0,30)" x2="-5" y2="0" stroke="#9ca3af" stroke-width="1" opacity="1"/></g><g class="mark-text role-axis-label" pointer-events="none"><text text-anchor="end" transform="translate(-7,14)" font-family="Helvetica" font-size="12px" fill="#111827" opacity="1">2</text><text text-anchor="end" transform="translate(-7,34)" font-family="Helvetica" font-size="12px" fill="#111827" opacity="1">6</text></g><g class="mark-rule role-axis-domain" pointer-events="none"><line transform="translate(0,0)" x2="0" y2="40" stroke="#111827" stroke-width="1" opacity="1"/></g><g class="mark-text role-axis-title" pointer-events="none"><text text-anchor="middle" transform="translate(-17.671875,20) rotate(-90) translate(0,-3)" font-family="Helvetica" font-size="12px" font-weight="bold" fill="#111827" opacity="1">Processes</text></g></g><path class="foreground" aria-hidden="true" d="" pointer-events="none" display="none"/></g></g><g class="mark-group role-title"><g transform="translate(-52.671875,20)"><path class="background" aria-hidden="true" d="M0,0h0v0h0Z" pointer-events="none"/><g><g class="mark-text role-title-text" role="graphics-symbol" aria-roledescription="title" aria-label="Title text 'Async::HTTP'" pointer-events="none"><text text-anchor="middle" transform="translate(0,0) rotate(-90) translate(0,9)" font-family="Helvetica" font-size="12px" fill="#111827" opacity="1">Async::HTTP</text></g></g><path class="foreground" aria-hidden="true" d="" pointer-events="none" display="none"/></g></g></g><path class="foreground" aria-hidden="true" d="" display="none"/></g><g transform="translate(0,120)"><path class="background" aria-hidden="true" d="M0,0h0v40h0Z"/><g><g class="mark-group role-axis" role="graphics-symbol" aria-roledescription="axis" aria-label="Y-axis titled 'Processes' for a discrete scale with 2 values: 2, 6"><g transform="translate(0.5,0.5)"><path class="background" aria-hidden="true" d="M0,0h0v0h0Z" pointer-events="none"/><g><g class="mark-rule role-axis-tick" pointer-events="none"><line transform="translate(0,10)" x2="-5" y2="0" stroke="#9ca3af" stroke-width="1" opacity="1"/><line transform="translate(0,30)" x2="-5" y2="0" stroke="#9ca3af" stroke-width="1" opacity="1"/></g><g class="mark-text role-axis-label" pointer-events="none"><text text-anchor="end" transform="translate(-7,14)" font-family="Helvetica" font-size="12px" fill="#111827" opacity="1">2</text><text text-anchor="end" transform="translate(-7,34)" font-family="Helvetica" font-size="12px" fill="#111827" opacity="1">6</text></g><g class="mark-rule role-axis-domain" pointer-events="none"><line transform="translate(0,0)" x2="0" y2="40" stroke="#111827" stroke-width="1" opacity="1"/></g><g class="mark-text role-axis-title" pointer-events="none"><text text-anchor="middle" transform="translate(-17.671875,20) rotate(-90) translate(0,-3)" font-family="Helvetica" font-size="12px" font-weight="bold" fill="#111827" opacity="1">Processes</text></g></g><path class="foreground" aria-hidden="true" d="" pointer-events="none" display="none"/></g></g><g class="mark-group role-title"><g transform="translate(-52.67187500000001,20)"><path class="background" aria-hidden="true" d="M0,0h0v0h0Z" pointer-events="none"/><g><g class="mark-text role-title-text" role="graphics-symbol" aria-roledescription="title" aria-label="Title text 'RubyLLM Stream'" pointer-events="none"><text text-anchor="middle" transform="translate(0,0) rotate(-90) translate(0,9)" font-family="Helvetica" font-size="12px" fill="#111827" opacity="1">RubyLLM Stream</text></g></g><path class="foreground" aria-hidden="true" d="" pointer-events="none" display="none"/></g></g></g><path class="foreground" aria-hidden="true" d="" display="none"/></g></g><g class="mark-group role-column-header column_header" role="graphics-object" aria-roledescription="group mark container"><g transform="translate(0,0)"><path class="background" aria-hidden="true" d="M0,0h100v0h-100Z"/><g><g class="mark-group role-title"><g transform="translate(50,-22)"><path class="background" aria-hidden="true" d="M0,0h0v0h0Z" pointer-events="none"/><g><g class="mark-text role-title-text" role="graphics-symbol" aria-roledescription="title" aria-label="Title text 'thread'" pointer-events="none"><text text-anchor="middle" transform="translate(0,9)" font-family="Helvetica" font-size="12px" fill="#111827" opacity="1">thread</text></g></g><path class="foreground" aria-hidden="true" d="" pointer-events="none" display="none"/></g></g></g><path class="foreground" aria-hidden="true" d="" display="none"/></g><g transform="translate(120,0)"><path class="background" aria-hidden="true" d="M0,0h100v0h-100Z"/><g><g class="mark-group role-title"><g transform="translate(50,-22)"><path class="background" aria-hidden="true" d="M0,0h0v0h0Z" pointer-events="none"/><g><g class="mark-text role-title-text" role="graphics-symbol" aria-roledescription="title" aria-label="Title text 'fiber'" pointer-events="none"><text text-anchor="middle" transform="translate(0,9)" font-family="Helvetica" font-size="12px" fill="#111827" opacity="1">fiber</text></g></g><path class="foreground" aria-hidden="true" d="" pointer-events="none" display="none"/></g></g></g><path class="foreground" aria-hidden="true" d="" display="none"/></g></g><g class="mark-group role-column-footer column_footer" role="graphics-object" aria-roledescription="group mark container"><g transform="translate(0,160)"><path class="background" aria-hidden="true" d="M0,0h100v0h-100Z"/><g><g class="mark-group role-axis" role="graphics-symbol" aria-roledescription="axis" aria-label="X-axis titled 'Concurrency' for a discrete scale with 5 values: 25, 50, 100, 150, 200"><g transform="translate(0.5,0.5)"><path class="background" aria-hidden="true" d="M0,0h0v0h0Z" pointer-events="none"/><g><g class="mark-rule role-axis-tick" pointer-events="none"><line transform="translate(10,0)" x2="0" y2="5" stroke="#9ca3af" stroke-width="1" opacity="1"/><line transform="translate(30,0)" x2="0" y2="5" stroke="#9ca3af" stroke-width="1" opacity="1"/><line transform="translate(50,0)" x2="0" y2="5" stroke="#9ca3af" stroke-width="1" opacity="1"/><line transform="translate(70,0)" x2="0" y2="5" stroke="#9ca3af" stroke-width="1" opacity="1"/><line transform="translate(90,0)" x2="0" y2="5" stroke="#9ca3af" stroke-width="1" opacity="1"/></g><g class="mark-text role-axis-label" pointer-events="none"><text text-anchor="end" transform="translate(10,7) rotate(270) translate(0,4)" font-family="Helvetica" font-size="12px" fill="#111827" opacity="1">25</text><text text-anchor="end" transform="translate(30,7) rotate(270) translate(0,4)" font-family="Helvetica" font-size="12px" fill="#111827" opacity="1">50</text><text text-anchor="end" transform="translate(50,7) rotate(270) translate(0,4)" font-family="Helvetica" font-size="12px" fill="#111827" opacity="1">100</text><text text-anchor="end" transform="translate(70,7) rotate(270) translate(0,4)" font-family="Helvetica" font-size="12px" fill="#111827" opacity="1">150</text><text text-anchor="end" transform="translate(90,7) rotate(270) translate(0,4)" font-family="Helvetica" font-size="12px" fill="#111827" opacity="1">200</text></g><g class="mark-rule role-axis-domain" pointer-events="none"><line transform="translate(0,0)" x2="100" y2="0" stroke="#111827" stroke-width="1" opacity="1"/></g><g class="mark-text role-axis-title" pointer-events="none"><text text-anchor="middle" transform="translate(50,40.015625)" font-family="Helvetica" font-size="12px" font-weight="bold" fill="#111827" opacity="1">Concurrency</text></g></g><path class="foreground" aria-hidden="true" d="" pointer-events="none" display="none"/></g></g></g><path class="foreground" aria-hidden="true" d="" display="none"/></g><g transform="translate(120,160)"><path class="background" aria-hidden="true" d="M0,0h100v0h-100Z"/><g><g class="mark-group role-axis" role="graphics-symbol" aria-roledescription="axis" aria-label="X-axis titled 'Concurrency' for a discrete scale with 5 values: 25, 50, 100, 150, 200"><g transform="translate(0.5,0.5)"><path class="background" aria-hidden="true" d="M0,0h0v0h0Z" pointer-events="none"/><g><g class="mark-rule role-axis-tick" pointer-events="none"><line transform="translate(10,0)" x2="0" y2="5" stroke="#9ca3af" stroke-width="1" opacity="1"/><line transform="translate(30,0)" x2="0" y2="5" stroke="#9ca3af" stroke-width="1" opacity="1"/><line transform="translate(50,0)" x2="0" y2="5" stroke="#9ca3af" stroke-width="1" opacity="1"/><line transform="translate(70,0)" x2="0" y2="5" stroke="#9ca3af" stroke-width="1" opacity="1"/><line transform="translate(90,0)" x2="0" y2="5" stroke="#9ca3af" stroke-width="1" opacity="1"/></g><g class="mark-text role-axis-label" pointer-events="none"><text text-anchor="end" transform="translate(10,7) rotate(270) translate(0,4)" font-family="Helvetica" font-size="12px" fill="#111827" opacity="1">25</text><text text-anchor="end" transform="translate(30,7) rotate(270) translate(0,4)" font-family="Helvetica" font-size="12px" fill="#111827" opacity="1">50</text><text text-anchor="end" transform="translate(50,7) rotate(270) translate(0,4)" font-family="Helvetica" font-size="12px" fill="#111827" opacity="1">100</text><text text-anchor="end" transform="translate(70,7) rotate(270) translate(0,4)" font-family="Helvetica" font-size="12px" fill="#111827" opacity="1">150</text><text text-anchor="end" transform="translate(90,7) rotate(270) translate(0,4)" font-family="Helvetica" font-size="12px" fill="#111827" opacity="1">200</text></g><g class="mark-rule role-axis-domain" pointer-events="none"><line transform="translate(0,0)" x2="100" y2="0" stroke="#111827" stroke-width="1" opacity="1"/></g><g class="mark-text role-axis-title" pointer-events="none"><text text-anchor="middle" transform="translate(50,40.015625)" font-family="Helvetica" font-size="12px" font-weight="bold" fill="#111827" opacity="1">Concurrency</text></g></g><path class="foreground" aria-hidden="true" d="" pointer-events="none" display="none"/></g></g></g><path class="foreground" aria-hidden="true" d="" display="none"/></g></g><g class="mark-group role-scope cell" role="graphics-object" aria-roledescription="group mark container"><g transform="translate(0,0)"><path class="background" aria-hidden="true" d="M0,0h100v40h-100Z"/><g><g class="mark-group role-axis" aria-hidden="true"><g transform="translate(0.5,40.5)"><path class="background" aria-hidden="true" d="M0,0h0v0h0Z" pointer-events="none"/><g><g class="mark-rule role-axis-grid" pointer-events="none"><line transform="translate(10,0)" x2="0" y2="-40" stroke="#e5e7eb" stroke-width="1" opacity="1"/><line transform="translate(30,0)" x2="0" y2="-40" stroke="#e5e7eb" stroke-width="1" opacity="1"/><line transform="translate(50,0)" x2="0" y2="-40" stroke="#e5e7eb" stroke-width="1" opacity="1"/><line transform="translate(70,0)" x2="0" y2="-40" stroke="#e5e7eb" stroke-width="1" opacity="1"/><line transform="translate(90,0)" x2="0" y2="-40" stroke="#e5e7eb" stroke-width="1" opacity="1"/></g></g><path class="foreground" aria-hidden="true" d="" pointer-events="none" display="none"/></g></g><g class="mark-group role-axis" aria-hidden="true"><g transform="translate(0.5,0.5)"><path class="background" aria-hidden="true" d="M0,0h0v0h0Z" pointer-events="none"/><g><g class="mark-rule role-axis-grid" pointer-events="none"><line transform="translate(0,10)" x2="100" y2="0" stroke="#e5e7eb" stroke-width="1" opacity="1"/><line transform="translate(0,30)" x2="100" y2="0" stroke="#e5e7eb" stroke-width="1" opacity="1"/></g></g><path class="foreground" aria-hidden="true" d="" pointer-events="none" display="none"/></g></g><g class="mark-symbol role-mark child_marks" role="graphics-object" aria-roledescription="symbol mark container"><path aria-label="Concurrency: 25; Processes: 2; status: completed; mode: thread; workload: Sleep; concurrency: 25; processes: 2" role="graphics-symbol" aria-roledescription="point" transform="translate(10,10)" d="M5.701,0A5.701,5.701,0,1,1,-5.701,0A5.701,5.701,0,1,1,5.701,0" fill="#10b981" stroke-width="2" opacity="0.7"/><path aria-label="Concurrency: 50; Processes: 2; status: failed; mode: thread; workload: Sleep; concurrency: 50; processes: 2" role="graphics-symbol" aria-roledescription="point" transform="translate(30,10)" d="M5.701,0A5.701,5.701,0,1,1,-5.701,0A5.701,5.701,0,1,1,5.701,0" fill="#ef4444" stroke-width="2" opacity="0.7"/><path aria-label="Concurrency: 100; Processes: 2; status: failed; mode: thread; workload: Sleep; concurrency: 100; processes: 2" role="graphics-symbol" aria-roledescription="point" transform="translate(50,10)" d="M5.701,0A5.701,5.701,0,1,1,-5.701,0A5.701,5.701,0,1,1,5.701,0" fill="#ef4444" stroke-width="2" opacity="0.7"/><path aria-label="Concurrency: 150; Processes: 2; status: failed; mode: thread; workload: Sleep; concurrency: 150; processes: 2" role="graphics-symbol" aria-roledescription="point" transform="translate(70,10)" d="M5.701,0A5.701,5.701,0,1,1,-5.701,0A5.701,5.701,0,1,1,5.701,0" fill="#ef4444" stroke-width="2" opacity="0.7"/><path aria-label="Concurrency: 200; Processes: 2; status: failed; mode: thread; workload: Sleep; concurrency: 200; processes: 2" role="graphics-symbol" aria-roledescription="point" transform="translate(90,10)" d="M5.701,0A5.701,5.701,0,1,1,-5.701,0A5.701,5.701,0,1,1,5.701,0" fill="#ef4444" stroke-width="2" opacity="0.7"/><path aria-label="Concurrency: 25; Processes: 6; status: failed; mode: thread; workload: Sleep; concurrency: 25; processes: 6" role="graphics-symbol" aria-roledescription="point" transform="translate(10,30)" d="M5.701,0A5.701,5.701,0,1,1,-5.701,0A5.701,5.701,0,1,1,5.701,0" fill="#ef4444" stroke-width="2" opacity="0.7"/><path aria-label="Concurrency: 50; Processes: 6; status: failed; mode: thread; workload: Sleep; concurrency: 50; processes: 6" role="graphics-symbol" aria-roledescription="point" transform="translate(30,30)" d="M5.701,0A5.701,5.701,0,1,1,-5.701,0A5.701,5.701,0,1,1,5.701,0" fill="#ef4444" stroke-width="2" opacity="0.7"/><path aria-label="Concurrency: 100; Processes: 6; status: failed; mode: thread; workload: Sleep; concurrency: 100; processes: 6" role="graphics-symbol" aria-roledescription="point" transform="translate(50,30)" d="M5.701,0A5.701,5.701,0,1,1,-5.701,0A5.701,5.701,0,1,1,5.701,0" fill="#ef4444" stroke-width="2" opacity="0.7"/><path aria-label="Concurrency: 150; Processes: 6; status: failed; mode: thread; workload: Sleep; concurrency: 150; processes: 6" role="graphics-symbol" aria-roledescription="point" transform="translate(70,30)" d="M5.701,0A5.701,5.701,0,1,1,-5.701,0A5.701,5.701,0,1,1,5.701,0" fill="#ef4444" stroke-width="2" opacity="0.7"/><path aria-label="Concurrency: 200; Processes: 6; status: failed; mode: thread; workload: Sleep; concurrency: 200; processes: 6" role="graphics-symbol" aria-roledescription="point" transform="translate(90,30)" d="M5.701,0A5.701,5.701,0,1,1,-5.701,0A5.701,5.701,0,1,1,5.701,0" fill="#ef4444" stroke-width="2" opacity="0.7"/></g></g><path class="foreground" aria-hidden="true" d="" display="none"/></g><g transform="translate(120,0)"><path class="background" aria-hidden="true" d="M0,0h100v40h-100Z"/><g><g class="mark-group role-axis" aria-hidden="true"><g transform="translate(0.5,40.5)"><path class="background" aria-hidden="true" d="M0,0h0v0h0Z" pointer-events="none"/><g><g class="mark-rule role-axis-grid" pointer-events="none"><line transform="translate(10,0)" x2="0" y2="-40" stroke="#e5e7eb" stroke-width="1" opacity="1"/><line transform="translate(30,0)" x2="0" y2="-40" stroke="#e5e7eb" stroke-width="1" opacity="1"/><line transform="translate(50,0)" x2="0" y2="-40" stroke="#e5e7eb" stroke-width="1" opacity="1"/><line transform="translate(70,0)" x2="0" y2="-40" stroke="#e5e7eb" stroke-width="1" opacity="1"/><line transform="translate(90,0)" x2="0" y2="-40" stroke="#e5e7eb" stroke-width="1" opacity="1"/></g></g><path class="foreground" aria-hidden="true" d="" pointer-events="none" display="none"/></g></g><g class="mark-group role-axis" aria-hidden="true"><g transform="translate(0.5,0.5)"><path class="background" aria-hidden="true" d="M0,0h0v0h0Z" pointer-events="none"/><g><g class="mark-rule role-axis-grid" pointer-events="none"><line transform="translate(0,10)" x2="100" y2="0" stroke="#e5e7eb" stroke-width="1" opacity="1"/><line transform="translate(0,30)" x2="100" y2="0" stroke="#e5e7eb" stroke-width="1" opacity="1"/></g></g><path class="foreground" aria-hidden="true" d="" pointer-events="none" display="none"/></g></g><g class="mark-symbol role-mark child_marks" role="graphics-object" aria-roledescription="symbol mark container"><path aria-label="Concurrency: 25; Processes: 2; status: completed; mode: fiber; workload: Sleep; concurrency: 25; processes: 2" role="graphics-symbol" aria-roledescription="point" transform="translate(10,10)" d="M-5.701,-5.701h11.402v11.402h-11.402Z" fill="#10b981" stroke-width="2" opacity="0.7"/><path aria-label="Concurrency: 50; Processes: 2; status: completed; mode: fiber; workload: Sleep; concurrency: 50; processes: 2" role="graphics-symbol" aria-roledescription="point" transform="translate(30,10)" d="M-5.701,-5.701h11.402v11.402h-11.402Z" fill="#10b981" stroke-width="2" opacity="0.7"/><path aria-label="Concurrency: 100; Processes: 2; status: completed; mode: fiber; workload: Sleep; concurrency: 100; processes: 2" role="graphics-symbol" aria-roledescription="point" transform="translate(50,10)" d="M-5.701,-5.701h11.402v11.402h-11.402Z" fill="#10b981" stroke-width="2" opacity="0.7"/><path aria-label="Concurrency: 150; Processes: 2; status: completed; mode: fiber; workload: Sleep; concurrency: 150; processes: 2" role="graphics-symbol" aria-roledescription="point" transform="translate(70,10)" d="M-5.701,-5.701h11.402v11.402h-11.402Z" fill="#10b981" stroke-width="2" opacity="0.7"/><path aria-label="Concurrency: 200; Processes: 2; status: completed; mode: fiber; workload: Sleep; concurrency: 200; processes: 2" role="graphics-symbol" aria-roledescription="point" transform="translate(90,10)" d="M-5.701,-5.701h11.402v11.402h-11.402Z" fill="#10b981" stroke-width="2" opacity="0.7"/><path aria-label="Concurrency: 25; Processes: 6; status: completed; mode: fiber; workload: Sleep; concurrency: 25; processes: 6" role="graphics-symbol" aria-roledescription="point" transform="translate(10,30)" d="M-5.701,-5.701h11.402v11.402h-11.402Z" fill="#10b981" stroke-width="2" opacity="0.7"/><path aria-label="Concurrency: 50; Processes: 6; status: completed; mode: fiber; workload: Sleep; concurrency: 50; processes: 6" role="graphics-symbol" aria-roledescription="point" transform="translate(30,30)" d="M-5.701,-5.701h11.402v11.402h-11.402Z" fill="#10b981" stroke-width="2" opacity="0.7"/><path aria-label="Concurrency: 100; Processes: 6; status: completed; mode: fiber; workload: Sleep; concurrency: 100; processes: 6" role="graphics-symbol" aria-roledescription="point" transform="translate(50,30)" d="M-5.701,-5.701h11.402v11.402h-11.402Z" fill="#10b981" stroke-width="2" opacity="0.7"/><path aria-label="Concurrency: 150; Processes: 6; status: completed; mode: fiber; workload: Sleep; concurrency: 150; processes: 6" role="graphics-symbol" aria-roledescription="point" transform="translate(70,30)" d="M-5.701,-5.701h11.402v11.402h-11.402Z" fill="#10b981" stroke-width="2" opacity="0.7"/><path aria-label="Concurrency: 200; Processes: 6; status: completed; mode: fiber; workload: Sleep; concurrency: 200; processes: 6" role="graphics-symbol" aria-roledescription="point" transform="translate(90,30)" d="M-5.701,-5.701h11.402v11.402h-11.402Z" fill="#10b981" stroke-width="2" opacity="0.7"/></g></g><path class="foreground" aria-hidden="true" d="" display="none"/></g><g transform="translate(0,60)"><path class="background" aria-hidden="true" d="M0,0h100v40h-100Z"/><g><g class="mark-group role-axis" aria-hidden="true"><g transform="translate(0.5,40.5)"><path class="background" aria-hidden="true" d="M0,0h0v0h0Z" pointer-events="none"/><g><g class="mark-rule role-axis-grid" pointer-events="none"><line transform="translate(10,0)" x2="0" y2="-40" stroke="#e5e7eb" stroke-width="1" opacity="1"/><line transform="translate(30,0)" x2="0" y2="-40" stroke="#e5e7eb" stroke-width="1" opacity="1"/><line transform="translate(50,0)" x2="0" y2="-40" stroke="#e5e7eb" stroke-width="1" opacity="1"/><line transform="translate(70,0)" x2="0" y2="-40" stroke="#e5e7eb" stroke-width="1" opacity="1"/><line transform="translate(90,0)" x2="0" y2="-40" stroke="#e5e7eb" stroke-width="1" opacity="1"/></g></g><path class="foreground" aria-hidden="true" d="" pointer-events="none" display="none"/></g></g><g class="mark-group role-axis" aria-hidden="true"><g transform="translate(0.5,0.5)"><path class="background" aria-hidden="true" d="M0,0h0v0h0Z" pointer-events="none"/><g><g class="mark-rule role-axis-grid" pointer-events="none"><line transform="translate(0,10)" x2="100" y2="0" stroke="#e5e7eb" stroke-width="1" opacity="1"/><line transform="translate(0,30)" x2="100" y2="0" stroke="#e5e7eb" stroke-width="1" opacity="1"/></g></g><path class="foreground" aria-hidden="true" d="" pointer-events="none" display="none"/></g></g><g class="mark-symbol role-mark child_marks" role="graphics-object" aria-roledescription="symbol mark container"><path aria-label="Concurrency: 25; Processes: 2; status: completed; mode: thread; workload: Async::HTTP; concurrency: 25; processes: 2" role="graphics-symbol" aria-roledescription="point" transform="translate(10,10)" d="M5.701,0A5.701,5.701,0,1,1,-5.701,0A5.701,5.701,0,1,1,5.701,0" fill="#10b981" stroke-width="2" opacity="0.7"/><path aria-label="Concurrency: 50; Processes: 2; status: failed; mode: thread; workload: Async::HTTP; concurrency: 50; processes: 2" role="graphics-symbol" aria-roledescription="point" transform="translate(30,10)" d="M5.701,0A5.701,5.701,0,1,1,-5.701,0A5.701,5.701,0,1,1,5.701,0" fill="#ef4444" stroke-width="2" opacity="0.7"/><path aria-label="Concurrency: 100; Processes: 2; status: failed; mode: thread; workload: Async::HTTP; concurrency: 100; processes: 2" role="graphics-symbol" aria-roledescription="point" transform="translate(50,10)" d="M5.701,0A5.701,5.701,0,1,1,-5.701,0A5.701,5.701,0,1,1,5.701,0" fill="#ef4444" stroke-width="2" opacity="0.7"/><path aria-label="Concurrency: 150; Processes: 2; status: failed; mode: thread; workload: Async::HTTP; concurrency: 150; processes: 2" role="graphics-symbol" aria-roledescription="point" transform="translate(70,10)" d="M5.701,0A5.701,5.701,0,1,1,-5.701,0A5.701,5.701,0,1,1,5.701,0" fill="#ef4444" stroke-width="2" opacity="0.7"/><path aria-label="Concurrency: 200; Processes: 2; status: failed; mode: thread; workload: Async::HTTP; concurrency: 200; processes: 2" role="graphics-symbol" aria-roledescription="point" transform="translate(90,10)" d="M5.701,0A5.701,5.701,0,1,1,-5.701,0A5.701,5.701,0,1,1,5.701,0" fill="#ef4444" stroke-width="2" opacity="0.7"/><path aria-label="Concurrency: 25; Processes: 6; status: failed; mode: thread; workload: Async::HTTP; concurrency: 25; processes: 6" role="graphics-symbol" aria-roledescription="point" transform="translate(10,30)" d="M5.701,0A5.701,5.701,0,1,1,-5.701,0A5.701,5.701,0,1,1,5.701,0" fill="#ef4444" stroke-width="2" opacity="0.7"/><path aria-label="Concurrency: 50; Processes: 6; status: failed; mode: thread; workload: Async::HTTP; concurrency: 50; processes: 6" role="graphics-symbol" aria-roledescription="point" transform="translate(30,30)" d="M5.701,0A5.701,5.701,0,1,1,-5.701,0A5.701,5.701,0,1,1,5.701,0" fill="#ef4444" stroke-width="2" opacity="0.7"/><path aria-label="Concurrency: 100; Processes: 6; status: failed; mode: thread; workload: Async::HTTP; concurrency: 100; processes: 6" role="graphics-symbol" aria-roledescription="point" transform="translate(50,30)" d="M5.701,0A5.701,5.701,0,1,1,-5.701,0A5.701,5.701,0,1,1,5.701,0" fill="#ef4444" stroke-width="2" opacity="0.7"/><path aria-label="Concurrency: 150; Processes: 6; status: failed; mode: thread; workload: Async::HTTP; concurrency: 150; processes: 6" role="graphics-symbol" aria-roledescription="point" transform="translate(70,30)" d="M5.701,0A5.701,5.701,0,1,1,-5.701,0A5.701,5.701,0,1,1,5.701,0" fill="#ef4444" stroke-width="2" opacity="0.7"/><path aria-label="Concurrency: 200; Processes: 6; status: failed; mode: thread; workload: Async::HTTP; concurrency: 200; processes: 6" role="graphics-symbol" aria-roledescription="point" transform="translate(90,30)" d="M5.701,0A5.701,5.701,0,1,1,-5.701,0A5.701,5.701,0,1,1,5.701,0" fill="#ef4444" stroke-width="2" opacity="0.7"/></g></g><path class="foreground" aria-hidden="true" d="" display="none"/></g><g transform="translate(120,60)"><path class="background" aria-hidden="true" d="M0,0h100v40h-100Z"/><g><g class="mark-group role-axis" aria-hidden="true"><g transform="translate(0.5,40.5)"><path class="background" aria-hidden="true" d="M0,0h0v0h0Z" pointer-events="none"/><g><g class="mark-rule role-axis-grid" pointer-events="none"><line transform="translate(10,0)" x2="0" y2="-40" stroke="#e5e7eb" stroke-width="1" opacity="1"/><line transform="translate(30,0)" x2="0" y2="-40" stroke="#e5e7eb" stroke-width="1" opacity="1"/><line transform="translate(50,0)" x2="0" y2="-40" stroke="#e5e7eb" stroke-width="1" opacity="1"/><line transform="translate(70,0)" x2="0" y2="-40" stroke="#e5e7eb" stroke-width="1" opacity="1"/><line transform="translate(90,0)" x2="0" y2="-40" stroke="#e5e7eb" stroke-width="1" opacity="1"/></g></g><path class="foreground" aria-hidden="true" d="" pointer-events="none" display="none"/></g></g><g class="mark-group role-axis" aria-hidden="true"><g transform="translate(0.5,0.5)"><path class="background" aria-hidden="true" d="M0,0h0v0h0Z" pointer-events="none"/><g><g class="mark-rule role-axis-grid" pointer-events="none"><line transform="translate(0,10)" x2="100" y2="0" stroke="#e5e7eb" stroke-width="1" opacity="1"/><line transform="translate(0,30)" x2="100" y2="0" stroke="#e5e7eb" stroke-width="1" opacity="1"/></g></g><path class="foreground" aria-hidden="true" d="" pointer-events="none" display="none"/></g></g><g class="mark-symbol role-mark child_marks" role="graphics-object" aria-roledescription="symbol mark container"><path aria-label="Concurrency: 25; Processes: 2; status: completed; mode: fiber; workload: Async::HTTP; concurrency: 25; processes: 2" role="graphics-symbol" aria-roledescription="point" transform="translate(10,10)" d="M-5.701,-5.701h11.402v11.402h-11.402Z" fill="#10b981" stroke-width="2" opacity="0.7"/><path aria-label="Concurrency: 50; Processes: 2; status: completed; mode: fiber; workload: Async::HTTP; concurrency: 50; processes: 2" role="graphics-symbol" aria-roledescription="point" transform="translate(30,10)" d="M-5.701,-5.701h11.402v11.402h-11.402Z" fill="#10b981" stroke-width="2" opacity="0.7"/><path aria-label="Concurrency: 100; Processes: 2; status: completed; mode: fiber; workload: Async::HTTP; concurrency: 100; processes: 2" role="graphics-symbol" aria-roledescription="point" transform="translate(50,10)" d="M-5.701,-5.701h11.402v11.402h-11.402Z" fill="#10b981" stroke-width="2" opacity="0.7"/><path aria-label="Concurrency: 150; Processes: 2; status: completed; mode: fiber; workload: Async::HTTP; concurrency: 150; processes: 2" role="graphics-symbol" aria-roledescription="point" transform="translate(70,10)" d="M-5.701,-5.701h11.402v11.402h-11.402Z" fill="#10b981" stroke-width="2" opacity="0.7"/><path aria-label="Concurrency: 200; Processes: 2; status: completed; mode: fiber; workload: Async::HTTP; concurrency: 200; processes: 2" role="graphics-symbol" aria-roledescription="point" transform="translate(90,10)" d="M-5.701,-5.701h11.402v11.402h-11.402Z" fill="#10b981" stroke-width="2" opacity="0.7"/><path aria-label="Concurrency: 25; Processes: 6; status: completed; mode: fiber; workload: Async::HTTP; concurrency: 25; processes: 6" role="graphics-symbol" aria-roledescription="point" transform="translate(10,30)" d="M-5.701,-5.701h11.402v11.402h-11.402Z" fill="#10b981" stroke-width="2" opacity="0.7"/><path aria-label="Concurrency: 50; Processes: 6; status: completed; mode: fiber; workload: Async::HTTP; concurrency: 50; processes: 6" role="graphics-symbol" aria-roledescription="point" transform="translate(30,30)" d="M-5.701,-5.701h11.402v11.402h-11.402Z" fill="#10b981" stroke-width="2" opacity="0.7"/><path aria-label="Concurrency: 100; Processes: 6; status: completed; mode: fiber; workload: Async::HTTP; concurrency: 100; processes: 6" role="graphics-symbol" aria-roledescription="point" transform="translate(50,30)" d="M-5.701,-5.701h11.402v11.402h-11.402Z" fill="#10b981" stroke-width="2" opacity="0.7"/><path aria-label="Concurrency: 150; Processes: 6; status: completed; mode: fiber; workload: Async::HTTP; concurrency: 150; processes: 6" role="graphics-symbol" aria-roledescription="point" transform="translate(70,30)" d="M-5.701,-5.701h11.402v11.402h-11.402Z" fill="#10b981" stroke-width="2" opacity="0.7"/><path aria-label="Concurrency: 200; Processes: 6; status: completed; mode: fiber; workload: Async::HTTP; concurrency: 200; processes: 6" role="graphics-symbol" aria-roledescription="point" transform="translate(90,30)" d="M-5.701,-5.701h11.402v11.402h-11.402Z" fill="#10b981" stroke-width="2" opacity="0.7"/></g></g><path class="foreground" aria-hidden="true" d="" display="none"/></g><g transform="translate(0,120)"><path class="background" aria-hidden="true" d="M0,0h100v40h-100Z"/><g><g class="mark-group role-axis" aria-hidden="true"><g transform="translate(0.5,40.5)"><path class="background" aria-hidden="true" d="M0,0h0v0h0Z" pointer-events="none"/><g><g class="mark-rule role-axis-grid" pointer-events="none"><line transform="translate(10,0)" x2="0" y2="-40" stroke="#e5e7eb" stroke-width="1" opacity="1"/><line transform="translate(30,0)" x2="0" y2="-40" stroke="#e5e7eb" stroke-width="1" opacity="1"/><line transform="translate(50,0)" x2="0" y2="-40" stroke="#e5e7eb" stroke-width="1" opacity="1"/><line transform="translate(70,0)" x2="0" y2="-40" stroke="#e5e7eb" stroke-width="1" opacity="1"/><line transform="translate(90,0)" x2="0" y2="-40" stroke="#e5e7eb" stroke-width="1" opacity="1"/></g></g><path class="foreground" aria-hidden="true" d="" pointer-events="none" display="none"/></g></g><g class="mark-group role-axis" aria-hidden="true"><g transform="translate(0.5,0.5)"><path class="background" aria-hidden="true" d="M0,0h0v0h0Z" pointer-events="none"/><g><g class="mark-rule role-axis-grid" pointer-events="none"><line transform="translate(0,10)" x2="100" y2="0" stroke="#e5e7eb" stroke-width="1" opacity="1"/><line transform="translate(0,30)" x2="100" y2="0" stroke="#e5e7eb" stroke-width="1" opacity="1"/></g></g><path class="foreground" aria-hidden="true" d="" pointer-events="none" display="none"/></g></g><g class="mark-symbol role-mark child_marks" role="graphics-object" aria-roledescription="symbol mark container"><path aria-label="Concurrency: 25; Processes: 2; status: completed; mode: thread; workload: RubyLLM Stream; concurrency: 25; processes: 2" role="graphics-symbol" aria-roledescription="point" transform="translate(10,10)" d="M5.701,0A5.701,5.701,0,1,1,-5.701,0A5.701,5.701,0,1,1,5.701,0" fill="#10b981" stroke-width="2" opacity="0.7"/><path aria-label="Concurrency: 50; Processes: 2; status: failed; mode: thread; workload: RubyLLM Stream; concurrency: 50; processes: 2" role="graphics-symbol" aria-roledescription="point" transform="translate(30,10)" d="M5.701,0A5.701,5.701,0,1,1,-5.701,0A5.701,5.701,0,1,1,5.701,0" fill="#ef4444" stroke-width="2" opacity="0.7"/><path aria-label="Concurrency: 100; Processes: 2; status: failed; mode: thread; workload: RubyLLM Stream; concurrency: 100; processes: 2" role="graphics-symbol" aria-roledescription="point" transform="translate(50,10)" d="M5.701,0A5.701,5.701,0,1,1,-5.701,0A5.701,5.701,0,1,1,5.701,0" fill="#ef4444" stroke-width="2" opacity="0.7"/><path aria-label="Concurrency: 150; Processes: 2; status: failed; mode: thread; workload: RubyLLM Stream; concurrency: 150; processes: 2" role="graphics-symbol" aria-roledescription="point" transform="translate(70,10)" d="M5.701,0A5.701,5.701,0,1,1,-5.701,0A5.701,5.701,0,1,1,5.701,0" fill="#ef4444" stroke-width="2" opacity="0.7"/><path aria-label="Concurrency: 200; Processes: 2; status: failed; mode: thread; workload: RubyLLM Stream; concurrency: 200; processes: 2" role="graphics-symbol" aria-roledescription="point" transform="translate(90,10)" d="M5.701,0A5.701,5.701,0,1,1,-5.701,0A5.701,5.701,0,1,1,5.701,0" fill="#ef4444" stroke-width="2" opacity="0.7"/><path aria-label="Concurrency: 25; Processes: 6; status: failed; mode: thread; workload: RubyLLM Stream; concurrency: 25; processes: 6" role="graphics-symbol" aria-roledescription="point" transform="translate(10,30)" d="M5.701,0A5.701,5.701,0,1,1,-5.701,0A5.701,5.701,0,1,1,5.701,0" fill="#ef4444" stroke-width="2" opacity="0.7"/><path aria-label="Concurrency: 50; Processes: 6; status: failed; mode: thread; workload: RubyLLM Stream; concurrency: 50; processes: 6" role="graphics-symbol" aria-roledescription="point" transform="translate(30,30)" d="M5.701,0A5.701,5.701,0,1,1,-5.701,0A5.701,5.701,0,1,1,5.701,0" fill="#ef4444" stroke-width="2" opacity="0.7"/><path aria-label="Concurrency: 100; Processes: 6; status: failed; mode: thread; workload: RubyLLM Stream; concurrency: 100; processes: 6" role="graphics-symbol" aria-roledescription="point" transform="translate(50,30)" d="M5.701,0A5.701,5.701,0,1,1,-5.701,0A5.701,5.701,0,1,1,5.701,0" fill="#ef4444" stroke-width="2" opacity="0.7"/><path aria-label="Concurrency: 150; Processes: 6; status: failed; mode: thread; workload: RubyLLM Stream; concurrency: 150; processes: 6" role="graphics-symbol" aria-roledescription="point" transform="translate(70,30)" d="M5.701,0A5.701,5.701,0,1,1,-5.701,0A5.701,5.701,0,1,1,5.701,0" fill="#ef4444" stroke-width="2" opacity="0.7"/><path aria-label="Concurrency: 200; Processes: 6; status: failed; mode: thread; workload: RubyLLM Stream; concurrency: 200; processes: 6" role="graphics-symbol" aria-roledescription="point" transform="translate(90,30)" d="M5.701,0A5.701,5.701,0,1,1,-5.701,0A5.701,5.701,0,1,1,5.701,0" fill="#ef4444" stroke-width="2" opacity="0.7"/></g></g><path class="foreground" aria-hidden="true" d="" display="none"/></g><g transform="translate(120,120)"><path class="background" aria-hidden="true" d="M0,0h100v40h-100Z"/><g><g class="mark-group role-axis" aria-hidden="true"><g transform="translate(0.5,40.5)"><path class="background" aria-hidden="true" d="M0,0h0v0h0Z" pointer-events="none"/><g><g class="mark-rule role-axis-grid" pointer-events="none"><line transform="translate(10,0)" x2="0" y2="-40" stroke="#e5e7eb" stroke-width="1" opacity="1"/><line transform="translate(30,0)" x2="0" y2="-40" stroke="#e5e7eb" stroke-width="1" opacity="1"/><line transform="translate(50,0)" x2="0" y2="-40" stroke="#e5e7eb" stroke-width="1" opacity="1"/><line transform="translate(70,0)" x2="0" y2="-40" stroke="#e5e7eb" stroke-width="1" opacity="1"/><line transform="translate(90,0)" x2="0" y2="-40" stroke="#e5e7eb" stroke-width="1" opacity="1"/></g></g><path class="foreground" aria-hidden="true" d="" pointer-events="none" display="none"/></g></g><g class="mark-group role-axis" aria-hidden="true"><g transform="translate(0.5,0.5)"><path class="background" aria-hidden="true" d="M0,0h0v0h0Z" pointer-events="none"/><g><g class="mark-rule role-axis-grid" pointer-events="none"><line transform="translate(0,10)" x2="100" y2="0" stroke="#e5e7eb" stroke-width="1" opacity="1"/><line transform="translate(0,30)" x2="100" y2="0" stroke="#e5e7eb" stroke-width="1" opacity="1"/></g></g><path class="foreground" aria-hidden="true" d="" pointer-events="none" display="none"/></g></g><g class="mark-symbol role-mark child_marks" role="graphics-object" aria-roledescription="symbol mark container"><path aria-label="Concurrency: 25; Processes: 2; status: completed; mode: fiber; workload: RubyLLM Stream; concurrency: 25; processes: 2" role="graphics-symbol" aria-roledescription="point" transform="translate(10,10)" d="M-5.701,-5.701h11.402v11.402h-11.402Z" fill="#10b981" stroke-width="2" opacity="0.7"/><path aria-label="Concurrency: 50; Processes: 2; status: completed; mode: fiber; workload: RubyLLM Stream; concurrency: 50; processes: 2" role="graphics-symbol" aria-roledescription="point" transform="translate(30,10)" d="M-5.701,-5.701h11.402v11.402h-11.402Z" fill="#10b981" stroke-width="2" opacity="0.7"/><path aria-label="Concurrency: 100; Processes: 2; status: completed; mode: fiber; workload: RubyLLM Stream; concurrency: 100; processes: 2" role="graphics-symbol" aria-roledescription="point" transform="translate(50,10)" d="M-5.701,-5.701h11.402v11.402h-11.402Z" fill="#10b981" stroke-width="2" opacity="0.7"/><path aria-label="Concurrency: 150; Processes: 2; status: completed; mode: fiber; workload: RubyLLM Stream; concurrency: 150; processes: 2" role="graphics-symbol" aria-roledescription="point" transform="translate(70,10)" d="M-5.701,-5.701h11.402v11.402h-11.402Z" fill="#10b981" stroke-width="2" opacity="0.7"/><path aria-label="Concurrency: 200; Processes: 2; status: completed; mode: fiber; workload: RubyLLM Stream; concurrency: 200; processes: 2" role="graphics-symbol" aria-roledescription="point" transform="translate(90,10)" d="M-5.701,-5.701h11.402v11.402h-11.402Z" fill="#10b981" stroke-width="2" opacity="0.7"/><path aria-label="Concurrency: 25; Processes: 6; status: completed; mode: fiber; workload: RubyLLM Stream; concurrency: 25; processes: 6" role="graphics-symbol" aria-roledescription="point" transform="translate(10,30)" d="M-5.701,-5.701h11.402v11.402h-11.402Z" fill="#10b981" stroke-width="2" opacity="0.7"/><path aria-label="Concurrency: 50; Processes: 6; status: completed; mode: fiber; workload: RubyLLM Stream; concurrency: 50; processes: 6" role="graphics-symbol" aria-roledescription="point" transform="translate(30,30)" d="M-5.701,-5.701h11.402v11.402h-11.402Z" fill="#10b981" stroke-width="2" opacity="0.7"/><path aria-label="Concurrency: 100; Processes: 6; status: completed; mode: fiber; workload: RubyLLM Stream; concurrency: 100; processes: 6" role="graphics-symbol" aria-roledescription="point" transform="translate(50,30)" d="M-5.701,-5.701h11.402v11.402h-11.402Z" fill="#10b981" stroke-width="2" opacity="0.7"/><path aria-label="Concurrency: 150; Processes: 6; status: completed; mode: fiber; workload: RubyLLM Stream; concurrency: 150; processes: 6" role="graphics-symbol" aria-roledescription="point" transform="translate(70,30)" d="M-5.701,-5.701h11.402v11.402h-11.402Z" fill="#10b981" stroke-width="2" opacity="0.7"/><path aria-label="Concurrency: 200; Processes: 6; status: completed; mode: fiber; workload: RubyLLM Stream; concurrency: 200; processes: 6" role="graphics-symbol" aria-roledescription="point" transform="translate(90,30)" d="M-5.701,-5.701h11.402v11.402h-11.402Z" fill="#10b981" stroke-width="2" opacity="0.7"/></g></g><path class="foreground" aria-hidden="true" d="" display="none"/></g></g><g class="mark-group role-legend" role="graphics-symbol" aria-roledescription="legend" aria-label="Symbol legend titled 'status' for fill color with 2 values: completed, failed"><g transform="translate(238,0)"><path class="background" aria-hidden="true" d="M0,0h72v43h-72Z" pointer-events="none"/><g><g class="mark-group role-legend-entry"><g transform="translate(0,17)"><path class="background" aria-hidden="true" d="M0,0h0v0h0Z" pointer-events="none"/><g><g class="mark-group role-scope" role="graphics-object" aria-roledescription="group mark container"><g transform="translate(0,0)"><path class="background" aria-hidden="true" d="M0,0h71.1826171875v12h-71.1826171875Z" pointer-events="none" opacity="1"/><g><g class="mark-symbol role-legend-symbol" pointer-events="none"><path transform="translate(6,6)" d="M5,0A5,5,0,1,1,-5,0A5,5,0,1,1,5,0" fill="#10b981" stroke-width="1.5" opacity="0.7"/></g><g class="mark-text role-legend-label" pointer-events="none"><text text-anchor="start" transform="translate(16,10)" font-family="Helvetica" font-size="12px" fill="#111827" opacity="1">completed</text></g></g><path class="foreground" aria-hidden="true" d="" pointer-events="none" display="none"/></g><g transform="translate(0,14)"><path class="background" aria-hidden="true" d="M0,0h71.1826171875v12h-71.1826171875Z" pointer-events="none" opacity="1"/><g><g class="mark-symbol role-legend-symbol" pointer-events="none"><path transform="translate(6,6)" d="M5,0A5,5,0,1,1,-5,0A5,5,0,1,1,5,0" fill="#ef4444" stroke-width="1.5" opacity="0.7"/></g><g class="mark-text role-legend-label" pointer-events="none"><text text-anchor="start" transform="translate(16,10)" font-family="Helvetica" font-size="12px" fill="#111827" opacity="1">failed</text></g></g><path class="foreground" aria-hidden="true" d="" pointer-events="none" display="none"/></g></g></g><path class="foreground" aria-hidden="true" d="" pointer-events="none" display="none"/></g></g><g class="mark-text role-legend-title" pointer-events="none"><text text-anchor="start" transform="translate(0,9)" font-family="Helvetica" font-size="12px" font-weight="bold" fill="#111827" opacity="1">status</text></g></g><path class="foreground" aria-hidden="true" d="" pointer-events="none" display="none"/></g></g><g class="mark-group role-legend" role="graphics-symbol" aria-roledescription="legend" aria-label="Symbol legend titled 'mode' for shape with 2 values: thread, fiber"><g transform="translate(238,51)"><path class="background" aria-hidden="true" d="M0,0h50v46h-50Z" pointer-events="none"/><g><g class="mark-group role-legend-entry"><g transform="translate(0,17)"><path class="background" aria-hidden="true" d="M0,0h0v0h0Z" pointer-events="none"/><g><g class="mark-group role-scope" role="graphics-object" aria-roledescription="group mark container"><g transform="translate(0,0)"><path class="background" aria-hidden="true" d="M0,0h49.7412109375v12.5h-49.7412109375Z" pointer-events="none" opacity="1"/><g><g class="mark-symbol role-legend-symbol" pointer-events="none"><path transform="translate(6,6)" d="M5,0A5,5,0,1,1,-5,0A5,5,0,1,1,5,0" fill="black" fill-opacity="0.7" stroke-width="1.5" opacity="0.7"/></g><g class="mark-text role-legend-label" pointer-events="none"><text text-anchor="start" transform="translate(16,10)" font-family="Helvetica" font-size="12px" fill="#111827" opacity="1">thread</text></g></g><path class="foreground" aria-hidden="true" d="" pointer-events="none" display="none"/></g><g transform="translate(0,16)"><path class="background" aria-hidden="true" d="M0,0h49.7412109375v12.5h-49.7412109375Z" pointer-events="none" opacity="1"/><g><g class="mark-symbol role-legend-symbol" pointer-events="none"><path transform="translate(6,6)" d="M-5,-5h10v10h-10Z" fill="black" fill-opacity="0.7" stroke-width="1.5" opacity="0.7"/></g><g class="mark-text role-legend-label" pointer-events="none"><text text-anchor="start" transform="translate(16,10)" font-family="Helvetica" font-size="12px" fill="#111827" opacity="1">fiber</text></g></g><path class="foreground" aria-hidden="true" d="" pointer-events="none" display="none"/></g></g></g><path class="foreground" aria-hidden="true" d="" pointer-events="none" display="none"/></g></g><g class="mark-text role-legend-title" pointer-events="none"><text text-anchor="start" transform="translate(0,9)" font-family="Helvetica" font-size="12px" font-weight="bold" fill="#111827" opacity="1">mode</text></g></g><path class="foreground" aria-hidden="true" d="" pointer-events="none" display="none"/></g></g><g class="mark-group role-title"><g transform="translate(-87,-76)"><path class="background" aria-hidden="true" d="M0,0h0v0h0Z" pointer-events="none"/><g><g class="mark-text role-title-text" role="graphics-symbol" aria-roledescription="title" aria-label="Title text 'Solid Queue Stress Cell Status'" pointer-events="none"><text text-anchor="start" transform="translate(0,13)" font-family="Helvetica" font-size="16px" font-weight="bold" fill="#111827" opacity="1">Solid Queue Stress Cell Status</text></g></g><path class="foreground" aria-hidden="true" d="" pointer-events="none" display="none"/></g></g></g><path class="foreground" aria-hidden="true" d="" display="none"/></g></g></g></svg>