<svg xmlns="http://www.w3.org/2000/svg" xmlns:xlink="http://www.w3.org/1999/xlink" version="1.1" class="marks" width="831" height="247" viewBox="0 0 831 247"><rect width="831" height="247" fill="white"/><g fill="none" stroke-miterlimit="10" transform="translate(105,25)"><g class="mark-group role-frame root" role="graphics-object" aria-roledescription="group mark container"><g transform="translate(0,0)"><path class="background" aria-hidden="true" d="M0,0h720v184h-720Z"/><g><g class="mark-group role-axis" aria-hidden="true"><g transform="translate(0.5,184.5)"><path class="background" aria-hidden="true" d="M0,0h0v0h0Z" pointer-events="none"/><g><g class="mark-rule role-axis-grid" pointer-events="none"><line transform="translate(0,0)" x2="0" y2="-184" stroke="#e5e7eb" stroke-width="1" opacity="1"/><line transform="translate(36,0)" x2="0" y2="-184" stroke="#e5e7eb" stroke-width="1" opacity="1"/><line transform="translate(72,0)" x2="0" y2="-184" stroke="#e5e7eb" stroke-width="1" opacity="1"/><line transform="translate(108,0)" x2="0" y2="-184" stroke="#e5e7eb" stroke-width="1" opacity="1"/><line transform="translate(144,0)" x2="0" y2="-184" stroke="#e5e7eb" stroke-width="1" opacity="1"/><line transform="translate(180,0)" x2="0" y2="-184" stroke="#e5e7eb" stroke-width="1" opacity="1"/><line transform="translate(216,0)" x2="0" y2="-184" stroke="#e5e7eb" stroke-width="1" opacity="1"/><line transform="translate(252,0)" x2="0" y2="-184" stroke="#e5e7eb" stroke-width="1" opacity="1"/><line transform="translate(288,0)" x2="0" y2="-184" stroke="#e5e7eb" stroke-width="1" opacity="1"/><line transform="translate(324,0)" x2="0" y2="-184" stroke="#e5e7eb" stroke-width="1" opacity="1"/><line transform="translate(360,0)" x2="0" y2="-184" stroke="#e5e7eb" stroke-width="1" opacity="1"/><line transform="translate(396,0)" x2="0" y2="-184" stroke="#e5e7eb" stroke-width="1" opacity="1"/><line transform="translate(432,0)" x2="0" y2="-184" stroke="#e5e7eb" stroke-width="1" opacity="1"/><line transform="translate(468,0)" x2="0" y2="-184" stroke="#e5e7eb" stroke-width="1" opacity="1"/><line transform="translate(504,0)" x2="0" y2="-184" stroke="#e5e7eb" stroke-width="1" opacity="1"/><line transform="translate(540,0)" x2="0" y2="-184" stroke="#e5e7eb" stroke-width="1" opacity="1"/><line transform="translate(576,0)" x2="0" y2="-184" stroke="#e5e7eb" stroke-width="1" opacity="1"/><line transform="translate(612,0)" x2="0" y2="-184" stroke="#e5e7eb" stroke-width="1" opacity="1"/><line transform="translate(648,0)" x2="0" y2="-184" stroke="#e5e7eb" stroke-width="1" opacity="1"/><line transform="translate(684,0)" x2="0" y2="-184" stroke="#e5e7eb" stroke-width="1" opacity="1"/><line transform="translate(720,0)" x2="0" y2="-184" stroke="#e5e7eb" stroke-width="1" opacity="1"/></g></g><path class="foreground" aria-hidden="true" d="" pointer-events="none" display="none"/></g></g><g class="mark-group role-axis" aria-hidden="true"><g transform="translate(0.5,0.5)"><path class="background" aria-hidden="true" d="M0,0h0v0h0Z" pointer-events="none"/><g><g class="mark-rule role-axis-grid" pointer-events="none"><line transform="translate(0,23)" x2="720" y2="0" stroke="#e5e7eb" stroke-width="1" opacity="1"/><line transform="translate(0,69)" x2="720" y2="0" stroke="#e5e7eb" stroke-width="1" opacity="1"/><line transform="translate(0,115)" x2="720" y2="0" stroke="#e5e7eb" stroke-width="1" opacity="1"/><line transform="translate(0,161)" x2="720" y2="0" stroke="#e5e7eb" stroke-width="1" opacity="1"/></g></g><path class="foreground" aria-hidden="true" d="" pointer-events="none" display="none"/></g></g><g class="mark-group role-axis" role="graphics-symbol" aria-roledescription="axis" aria-label="X-axis titled 'Fiber throughput advantage over thread (%)' for a linear scale with values from −10 to +30"><g transform="translate(0.5,184.5)"><path class="background" aria-hidden="true" d="M0,0h0v0h0Z" pointer-events="none"/><g><g class="mark-rule role-axis-tick" pointer-events="none"><line transform="translate(0,0)" x2="0" y2="5" stroke="#9ca3af" stroke-width="1" opacity="1"/><line transform="translate(36,0)" x2="0" y2="5" stroke="#9ca3af" stroke-width="1" opacity="1"/><line transform="translate(72,0)" x2="0" y2="5" stroke="#9ca3af" stroke-width="1" opacity="1"/><line transform="translate(108,0)" x2="0" y2="5" stroke="#9ca3af" stroke-width="1" opacity="1"/><line transform="translate(144,0)" x2="0" y2="5" stroke="#9ca3af" stroke-width="1" opacity="1"/><line transform="translate(180,0)" x2="0" y2="5" stroke="#9ca3af" stroke-width="1" opacity="1"/><line transform="translate(216,0)" x2="0" y2="5" stroke="#9ca3af" stroke-width="1" opacity="1"/><line transform="translate(252,0)" x2="0" y2="5" stroke="#9ca3af" stroke-width="1" opacity="1"/><line transform="translate(288,0)" x2="0" y2="5" stroke="#9ca3af" stroke-width="1" opacity="1"/><line transform="translate(324,0)" x2="0" y2="5" stroke="#9ca3af" stroke-width="1" opacity="1"/><line transform="translate(360,0)" x2="0" y2="5" stroke="#9ca3af" stroke-width="1" opacity="1"/><line transform="translate(396,0)" x2="0" y2="5" stroke="#9ca3af" stroke-width="1" opacity="1"/><line transform="translate(432,0)" x2="0" y2="5" stroke="#9ca3af" stroke-width="1" opacity="1"/><line transform="translate(468,0)" x2="0" y2="5" stroke="#9ca3af" stroke-width="1" opacity="1"/><line transform="translate(504,0)" x2="0" y2="5" stroke="#9ca3af" stroke-width="1" opacity="1"/><line transform="translate(540,0)" x2="0" y2="5" stroke="#9ca3af" stroke-width="1" opacity="1"/><line transform="translate(576,0)" x2="0" y2="5" stroke="#9ca3af" stroke-width="1" opacity="1"/><line transform="translate(612,0)" x2="0" y2="5" stroke="#9ca3af" stroke-width="1" opacity="1"/><line transform="translate(648,0)" x2="0" y2="5" stroke="#9ca3af" stroke-width="1" opacity="1"/><line transform="translate(684,0)" x2="0" y2="5" stroke="#9ca3af" stroke-width="1" opacity="1"/><line transform="translate(720,0)" x2="0" y2="5" stroke="#9ca3af" stroke-width="1" opacity="1"/></g><g class="mark-text role-axis-label" pointer-events="none"><text text-anchor="start" transform="translate(0,16)" font-family="Helvetica" font-size="12px" fill="#111827" opacity="1">−10</text><text text-anchor="middle" transform="translate(36,16)" font-family="Helvetica" font-size="12px" fill="#111827" opacity="1">−8</text><text text-anchor="middle" transform="translate(72,16)" font-family="Helvetica" font-size="12px" fill="#111827" opacity="1">−6</text><text text-anchor="middle" transform="translate(108,16)" font-family="Helvetica" font-size="12px" fill="#111827" opacity="1">−4</text><text text-anchor="middle" transform="translate(144,16)" font-family="Helvetica" font-size="12px" fill="#111827" opacity="1">−2</text><text text-anchor="middle" transform="translate(180,16)" font-family="Helvetica" font-size="12px" fill="#111827" opacity="1">+0</text><text text-anchor="middle" transform="translate(216,16)" font-family="Helvetica" font-size="12px" fill="#111827" opacity="1">+2</text><text text-anchor="middle" transform="translate(251.99999999999997,16)" font-family="Helvetica" font-size="12px" fill="#111827" opacity="1">+4</text><text text-anchor="middle" transform="translate(288,16)" font-family="Helvetica" font-size="12px" fill="#111827" opacity="1">+6</text><text text-anchor="middle" transform="translate(324,16)" font-family="Helvetica" font-size="12px" fill="#111827" opacity="1">+8</text><text text-anchor="middle" transform="translate(360,16)" font-family="Helvetica" font-size="12px" fill="#111827" opacity="1">+10</text><text text-anchor="middle" transform="translate(396.00000000000006,16)" font-family="Helvetica" font-size="12px" fill="#111827" opacity="1">+12</text><text text-anchor="middle" transform="translate(432,16)" font-family="Helvetica" font-size="12px" fill="#111827" opacity="1">+14</text><text text-anchor="middle" transform="translate(468,16)" font-family="Helvetica" font-size="12px" fill="#111827" opacity="1">+16</text><text text-anchor="middle" transform="translate(503.99999999999994,16)" font-family="Helvetica" font-size="12px" fill="#111827" opacity="1">+18</text><text text-anchor="middle" transform="translate(540,16)" font-family="Helvetica" font-size="12px" fill="#111827" opacity="1">+20</text><text text-anchor="middle" transform="translate(576,16)" font-family="Helvetica" font-size="12px" fill="#111827" opacity="1">+22</text><text text-anchor="middle" transform="translate(612,16)" font-family="Helvetica" font-size="12px" fill="#111827" opacity="1">+24</text><text text-anchor="middle" transform="translate(648,16)" font-family="Helvetica" font-size="12px" fill="#111827" opacity="1">+26</text><text text-anchor="middle" transform="translate(684,16)" font-family="Helvetica" font-size="12px" fill="#111827" opacity="1">+28</text><text text-anchor="end" transform="translate(720,16)" font-family="Helvetica" font-size="12px" fill="#111827" opacity="1">+30</text></g><g class="mark-rule role-axis-domain" pointer-events="none"><line transform="translate(0,0)" x2="720" y2="0" stroke="#111827" stroke-width="1" opacity="1"/></g><g class="mark-text role-axis-title" pointer-events="none"><text text-anchor="middle" transform="translate(360,31)" font-family="Helvetica" font-size="12px" font-weight="bold" fill="#111827" opacity="1">Fiber throughput advantage over thread (%)</text></g></g><path class="foreground" aria-hidden="true" d="" pointer-events="none" display="none"/></g></g><g class="mark-group role-axis" role="graphics-symbol" aria-roledescription="axis" aria-label="Y-axis for a discrete scale with 4 values: Sleep, Async::HTTP, RubyLLM Stream, CPU"><g transform="translate(0.5,0.5)"><path class="background" aria-hidden="true" d="M0,0h0v0h0Z" pointer-events="none"/><g><g class="mark-rule role-axis-tick" pointer-events="none"><line transform="translate(0,23)" x2="-5" y2="0" stroke="#9ca3af" stroke-width="1" opacity="1"/><line transform="translate(0,69)" x2="-5" y2="0" stroke="#9ca3af" stroke-width="1" opacity="1"/><line transform="translate(0,115)" x2="-5" y2="0" stroke="#9ca3af" stroke-width="1" opacity="1"/><line transform="translate(0,161)" x2="-5" y2="0" stroke="#9ca3af" stroke-width="1" opacity="1"/></g><g class="mark-text role-axis-label" pointer-events="none"><text text-anchor="end" transform="translate(-7,26.5)" font-family="Helvetica" font-size="12px" fill="#111827" opacity="1">Sleep</text><text text-anchor="end" transform="translate(-7,72.5)" font-family="Helvetica" font-size="12px" fill="#111827" opacity="1">Async::HTTP</text><text text-anchor="end" transform="translate(-7,118.5)" font-family="Helvetica" font-size="12px" fill="#111827" opacity="1">RubyLLM Stream</text><text text-anchor="end" transform="translate(-7,164.5)" font-family="Helvetica" font-size="12px" fill="#111827" opacity="1">CPU</text></g><g class="mark-rule role-axis-domain" pointer-events="none"><line transform="translate(0,0)" x2="0" y2="184" stroke="#111827" stroke-width="1" opacity="1"/></g></g><path class="foreground" aria-hidden="true" d="" pointer-events="none" display="none"/></g></g><g class="mark-rule role-mark layer_0_marks" role="graphics-symbol" aria-roledescription="rule mark container"/><g class="mark-rule role-mark layer_1_marks" role="graphics-object" aria-roledescription="rule mark container"><line aria-label="Fiber throughput advantage over thread (%): −7; workload: Sleep; max: 15.9248603825; min: −7.1498122131; average: 7.40724702384; cells: 9" role="graphics-symbol" aria-roledescription="rule mark" transform="translate(51.303380164139654,23)" x2="415.3441067202738" y2="0" stroke="#94a3b8" stroke-width="8" opacity="0.55"/><line aria-label="Fiber throughput advantage over thread (%): −6; workload: Async::HTTP; max: 25.4637231649; min: −6.01482724857; average: 9.4672792496; cells: 9" role="graphics-symbol" aria-roledescription="rule mark" transform="translate(71.73310952580786,69)" x2="566.6139074418987" y2="0" stroke="#94a3b8" stroke-width="8" opacity="0.55"/><line aria-label="Fiber throughput advantage over thread (%): +3; workload: RubyLLM Stream; max: 21.8181818182; min: 3.08529945554; average: 11.929841972; cells: 9" role="graphics-symbol" aria-roledescription="rule mark" transform="translate(235.535390199637,115)" x2="337.19188252763564" y2="0" stroke="#94a3b8" stroke-width="8" opacity="0.55"/><line aria-label="Fiber throughput advantage over thread (%): −2; workload: CPU; max: 2.37275518749; min: −2.0592020592; average: 0.633281193321; cells: 9" role="graphics-symbol" aria-roledescription="rule mark" transform="translate(142.9343629343629,161)" x2="79.7752304405324" y2="0" stroke="#94a3b8" stroke-width="8" opacity="0.55"/></g><g class="mark-symbol role-mark layer_2_marks" role="graphics-object" aria-roledescription="symbol mark container"><path aria-label="Fiber throughput advantage over thread (%): −7; workload: Sleep; concurrency: 5; processes: 1 proc; value: −7.1498122131" role="graphics-symbol" aria-roledescription="point" transform="translate(51.303380164139654,23)" d="M3.808,0A3.808,3.808,0,1,1,-3.808,0A3.808,3.808,0,1,1,3.808,0" fill="#72b7b2" stroke-width="2" opacity="0.72"/><path aria-label="Fiber throughput advantage over thread (%): +8; workload: Sleep; concurrency: 10; processes: 1 proc; value: 7.6527585525" role="graphics-symbol" aria-roledescription="point" transform="translate(317.7496539450266,23)" d="M3.808,0A3.808,3.808,0,1,1,-3.808,0A3.808,3.808,0,1,1,3.808,0" fill="#72b7b2" stroke-width="2" opacity="0.72"/><path aria-label="Fiber throughput advantage over thread (%): +14; workload: Sleep; concurrency: 25; processes: 1 proc; value: 14.011880703" role="graphics-symbol" aria-roledescription="point" transform="translate(432.213852654786,23)" d="M3.808,0A3.808,3.808,0,1,1,-3.808,0A3.808,3.808,0,1,1,3.808,0" fill="#72b7b2" stroke-width="2" opacity="0.72"/><path aria-label="Fiber throughput advantage over thread (%): +16; workload: Sleep; concurrency: 50; processes: 1 proc; value: 15.9248603825" role="graphics-symbol" aria-roledescription="point" transform="translate(466.64748688441347,23)" d="M3.808,0A3.808,3.808,0,1,1,-3.808,0A3.808,3.808,0,1,1,3.808,0" fill="#72b7b2" stroke-width="2" opacity="0.72"/><path aria-label="Fiber throughput advantage over thread (%): −2; workload: Sleep; concurrency: 5; processes: 2 proc; value: −2.08269052761" role="graphics-symbol" aria-roledescription="point" transform="translate(142.51157050293133,23)" d="M3.808,0A3.808,3.808,0,1,1,-3.808,0A3.808,3.808,0,1,1,3.808,0" fill="#72b7b2" stroke-width="2" opacity="0.72"/><path aria-label="Fiber throughput advantage over thread (%): +13; workload: Sleep; concurrency: 10; processes: 2 proc; value: 12.7137341423" role="graphics-symbol" aria-roledescription="point" transform="translate(408.8472145615001,23)" d="M3.808,0A3.808,3.808,0,1,1,-3.808,0A3.808,3.808,0,1,1,3.808,0" fill="#72b7b2" stroke-width="2" opacity="0.72"/><path aria-label="Fiber throughput advantage over thread (%): +16; workload: Sleep; concurrency: 25; processes: 2 proc; value: 15.7159611899" role="graphics-symbol" aria-roledescription="point" transform="translate(462.8873014180615,23)" d="M3.808,0A3.808,3.808,0,1,1,-3.808,0A3.808,3.808,0,1,1,3.808,0" fill="#72b7b2" stroke-width="2" opacity="0.72"/><path aria-label="Fiber throughput advantage over thread (%): −3; workload: Sleep; concurrency: 5; processes: 6 proc; value: −2.65913146936" role="graphics-symbol" aria-roledescription="point" transform="translate(132.1356335514575,23)" d="M3.808,0A3.808,3.808,0,1,1,-3.808,0A3.808,3.808,0,1,1,3.808,0" fill="#72b7b2" stroke-width="2" opacity="0.72"/><path aria-label="Fiber throughput advantage over thread (%): +13; workload: Sleep; concurrency: 10; processes: 6 proc; value: 12.5376624545" role="graphics-symbol" aria-roledescription="point" transform="translate(405.67792418042,23)" d="M3.808,0A3.808,3.808,0,1,1,-3.808,0A3.808,3.808,0,1,1,3.808,0" fill="#72b7b2" stroke-width="2" opacity="0.72"/><path aria-label="Fiber throughput advantage over thread (%): −6; workload: Async::HTTP; concurrency: 5; processes: 1 proc; value: −6.01482724857" role="graphics-symbol" aria-roledescription="point" transform="translate(71.73310952580786,69)" d="M3.808,0A3.808,3.808,0,1,1,-3.808,0A3.808,3.808,0,1,1,3.808,0" fill="#4c78a8" stroke-width="2" opacity="0.72"/><path aria-label="Fiber throughput advantage over thread (%): +12; workload: Async::HTTP; concurrency: 10; processes: 1 proc; value: 12.1978243352" role="graphics-symbol" aria-roledescription="point" transform="translate(399.5608380338436,69)" d="M3.808,0A3.808,3.808,0,1,1,-3.808,0A3.808,3.808,0,1,1,3.808,0" fill="#4c78a8" stroke-width="2" opacity="0.72"/><path aria-label="Fiber throughput advantage over thread (%): +17; workload: Async::HTTP; concurrency: 25; processes: 1 proc; value: 17.3834115806" role="graphics-symbol" aria-roledescription="point" transform="translate(492.90140845070437,69)" d="M3.808,0A3.808,3.808,0,1,1,-3.808,0A3.808,3.808,0,1,1,3.808,0" fill="#4c78a8" stroke-width="2" opacity="0.72"/><path aria-label="Fiber throughput advantage over thread (%): +25; workload: Async::HTTP; concurrency: 50; processes: 1 proc; value: 25.4637231649" role="graphics-symbol" aria-roledescription="point" transform="translate(638.3470169677066,69)" d="M3.808,0A3.808,3.808,0,1,1,-3.808,0A3.808,3.808,0,1,1,3.808,0" fill="#4c78a8" stroke-width="2" opacity="0.72"/><path aria-label="Fiber throughput advantage over thread (%): −2; workload: Async::HTTP; concurrency: 5; processes: 2 proc; value: −1.62395135842" role="graphics-symbol" aria-roledescription="point" transform="translate(150.768875548372,69)" d="M3.808,0A3.808,3.808,0,1,1,-3.808,0A3.808,3.808,0,1,1,3.808,0" fill="#4c78a8" stroke-width="2" opacity="0.72"/><path aria-label="Fiber throughput advantage over thread (%): +12; workload: Async::HTTP; concurrency: 10; processes: 2 proc; value: 12.3531331593" role="graphics-symbol" aria-roledescription="point" transform="translate(402.35639686684084,69)" d="M3.808,0A3.808,3.808,0,1,1,-3.808,0A3.808,3.808,0,1,1,3.808,0" fill="#4c78a8" stroke-width="2" opacity="0.72"/><path aria-label="Fiber throughput advantage over thread (%): +19; workload: Async::HTTP; concurrency: 25; processes: 2 proc; value: 19.2036709181" role="graphics-symbol" aria-roledescription="point" transform="translate(525.6660765256352,69)" d="M3.808,0A3.808,3.808,0,1,1,-3.808,0A3.808,3.808,0,1,1,3.808,0" fill="#4c78a8" stroke-width="2" opacity="0.72"/><path aria-label="Fiber throughput advantage over thread (%): −3; workload: Async::HTTP; concurrency: 5; processes: 6 proc; value: −2.76673937076" role="graphics-symbol" aria-roledescription="point" transform="translate(130.198691326302,69)" d="M3.808,0A3.808,3.808,0,1,1,-3.808,0A3.808,3.808,0,1,1,3.808,0" fill="#4c78a8" stroke-width="2" opacity="0.72"/><path aria-label="Fiber throughput advantage over thread (%): +9; workload: Async::HTTP; concurrency: 10; processes: 6 proc; value: 9.00926806609" role="graphics-symbol" aria-roledescription="point" transform="translate(342.1668251896747,69)" d="M3.808,0A3.808,3.808,0,1,1,-3.808,0A3.808,3.808,0,1,1,3.808,0" fill="#4c78a8" stroke-width="2" opacity="0.72"/><path aria-label="Fiber throughput advantage over thread (%): +8; workload: RubyLLM Stream; concurrency: 5; processes: 1 proc; value: 7.94701986755" role="graphics-symbol" aria-roledescription="point" transform="translate(323.0463576158939,115)" d="M3.808,0A3.808,3.808,0,1,1,-3.808,0A3.808,3.808,0,1,1,3.808,0" fill="#e45756" stroke-width="2" opacity="0.72"/><path aria-label="Fiber throughput advantage over thread (%): +16; workload: RubyLLM Stream; concurrency: 10; processes: 1 proc; value: 16.25" role="graphics-symbol" aria-roledescription="point" transform="translate(472.5,115)" d="M3.808,0A3.808,3.808,0,1,1,-3.808,0A3.808,3.808,0,1,1,3.808,0" fill="#e45756" stroke-width="2" opacity="0.72"/><path aria-label="Fiber throughput advantage over thread (%): +20; workload: RubyLLM Stream; concurrency: 25; processes: 1 proc; value: 19.6202531646" role="graphics-symbol" aria-roledescription="point" transform="translate(533.1645569620251,115)" d="M3.808,0A3.808,3.808,0,1,1,-3.808,0A3.808,3.808,0,1,1,3.808,0" fill="#e45756" stroke-width="2" opacity="0.72"/><path aria-label="Fiber throughput advantage over thread (%): +22; workload: RubyLLM Stream; concurrency: 50; processes: 1 proc; value: 21.8181818182" role="graphics-symbol" aria-roledescription="point" transform="translate(572.7272727272726,115)" d="M3.808,0A3.808,3.808,0,1,1,-3.808,0A3.808,3.808,0,1,1,3.808,0" fill="#e45756" stroke-width="2" opacity="0.72"/><path aria-label="Fiber throughput advantage over thread (%): +6; workload: RubyLLM Stream; concurrency: 5; processes: 2 proc; value: 6.15942028986" role="graphics-symbol" aria-roledescription="point" transform="translate(290.86956521739154,115)" d="M3.808,0A3.808,3.808,0,1,1,-3.808,0A3.808,3.808,0,1,1,3.808,0" fill="#e45756" stroke-width="2" opacity="0.72"/><path aria-label="Fiber throughput advantage over thread (%): +16; workload: RubyLLM Stream; concurrency: 10; processes: 2 proc; value: 15.9863945578" role="graphics-symbol" aria-roledescription="point" transform="translate(467.75510204081644,115)" d="M3.808,0A3.808,3.808,0,1,1,-3.808,0A3.808,3.808,0,1,1,3.808,0" fill="#e45756" stroke-width="2" opacity="0.72"/><path aria-label="Fiber throughput advantage over thread (%): +12; workload: RubyLLM Stream; concurrency: 25; processes: 2 proc; value: 11.71875" role="graphics-symbol" aria-roledescription="point" transform="translate(390.93749999999983,115)" d="M3.808,0A3.808,3.808,0,1,1,-3.808,0A3.808,3.808,0,1,1,3.808,0" fill="#e45756" stroke-width="2" opacity="0.72"/><path aria-label="Fiber throughput advantage over thread (%): +5; workload: RubyLLM Stream; concurrency: 5; processes: 6 proc; value: 4.78325859492" role="graphics-symbol" aria-roledescription="point" transform="translate(266.09865470852003,115)" d="M3.808,0A3.808,3.808,0,1,1,-3.808,0A3.808,3.808,0,1,1,3.808,0" fill="#e45756" stroke-width="2" opacity="0.72"/><path aria-label="Fiber throughput advantage over thread (%): +3; workload: RubyLLM Stream; concurrency: 10; processes: 6 proc; value: 3.08529945554" role="graphics-symbol" aria-roledescription="point" transform="translate(235.535390199637,115)" d="M3.808,0A3.808,3.808,0,1,1,-3.808,0A3.808,3.808,0,1,1,3.808,0" fill="#e45756" stroke-width="2" opacity="0.72"/><path aria-label="Fiber throughput advantage over thread (%): −2; workload: CPU; concurrency: 5; processes: 1 proc; value: −2.0592020592" role="graphics-symbol" aria-roledescription="point" transform="translate(142.9343629343629,161)" d="M3.808,0A3.808,3.808,0,1,1,-3.808,0A3.808,3.808,0,1,1,3.808,0" fill="#f58518" stroke-width="2" opacity="0.72"/><path aria-label="Fiber throughput advantage over thread (%): +0; workload: CPU; concurrency: 10; processes: 1 proc; value: 0.0845665961945" role="graphics-symbol" aria-roledescription="point" transform="translate(181.5221987315013,161)" d="M3.808,0A3.808,3.808,0,1,1,-3.808,0A3.808,3.808,0,1,1,3.808,0" fill="#f58518" stroke-width="2" opacity="0.72"/><path aria-label="Fiber throughput advantage over thread (%): +1; workload: CPU; concurrency: 25; processes: 1 proc; value: 1.21899957966" role="graphics-symbol" aria-roledescription="point" transform="translate(201.94199243379563,161)" d="M3.808,0A3.808,3.808,0,1,1,-3.808,0A3.808,3.808,0,1,1,3.808,0" fill="#f58518" stroke-width="2" opacity="0.72"/><path aria-label="Fiber throughput advantage over thread (%): +1; workload: CPU; concurrency: 50; processes: 1 proc; value: 1.44927536232" role="graphics-symbol" aria-roledescription="point" transform="translate(206.08695652173913,161)" d="M3.808,0A3.808,3.808,0,1,1,-3.808,0A3.808,3.808,0,1,1,3.808,0" fill="#f58518" stroke-width="2" opacity="0.72"/><path aria-label="Fiber throughput advantage over thread (%): −1; workload: CPU; concurrency: 5; processes: 2 proc; value: −0.712316176471" role="graphics-symbol" aria-roledescription="point" transform="translate(167.1783088235293,161)" d="M3.808,0A3.808,3.808,0,1,1,-3.808,0A3.808,3.808,0,1,1,3.808,0" fill="#f58518" stroke-width="2" opacity="0.72"/><path aria-label="Fiber throughput advantage over thread (%): +2; workload: CPU; concurrency: 10; processes: 2 proc; value: 1.56782549421" role="graphics-symbol" aria-roledescription="point" transform="translate(208.22085889570573,161)" d="M3.808,0A3.808,3.808,0,1,1,-3.808,0A3.808,3.808,0,1,1,3.808,0" fill="#f58518" stroke-width="2" opacity="0.72"/><path aria-label="Fiber throughput advantage over thread (%): +2; workload: CPU; concurrency: 25; processes: 2 proc; value: 1.92793206335" role="graphics-symbol" aria-roledescription="point" transform="translate(214.70277714023396,161)" d="M3.808,0A3.808,3.808,0,1,1,-3.808,0A3.808,3.808,0,1,1,3.808,0" fill="#f58518" stroke-width="2" opacity="0.72"/><path aria-label="Fiber throughput advantage over thread (%): −0; workload: CPU; concurrency: 5; processes: 6 proc; value: −0.150305307656" role="graphics-symbol" aria-roledescription="point" transform="translate(177.29450446218888,161)" d="M3.808,0A3.808,3.808,0,1,1,-3.808,0A3.808,3.808,0,1,1,3.808,0" fill="#f58518" stroke-width="2" opacity="0.72"/><path aria-label="Fiber throughput advantage over thread (%): +2; workload: CPU; concurrency: 10; processes: 6 proc; value: 2.37275518749" role="graphics-symbol" aria-roledescription="point" transform="translate(222.7095933748953,161)" d="M3.808,0A3.808,3.808,0,1,1,-3.808,0A3.808,3.808,0,1,1,3.808,0" fill="#f58518" stroke-width="2" opacity="0.72"/></g><g class="mark-symbol role-mark layer_3_marks" role="graphics-object" aria-roledescription="symbol mark container"><path aria-label="Fiber throughput advantage over thread (%): +7; workload: Sleep; average: 7.40724702384; min: −7.1498122131; max: 15.9248603825; cells: 9" role="graphics-symbol" aria-roledescription="point" transform="translate(313.3304464291929,23)" d="M-6.124,0L0,-6.124L6.124,0L0,6.124Z" fill="#111827" stroke-width="2" opacity="0.7"/><path aria-label="Fiber throughput advantage over thread (%): +9; workload: Async::HTTP; average: 9.4672792496; min: −6.01482724857; max: 25.4637231649; cells: 9" role="graphics-symbol" aria-roledescription="point" transform="translate(350.41102649276525,69)" d="M-6.124,0L0,-6.124L6.124,0L0,6.124Z" fill="#111827" stroke-width="2" opacity="0.7"/><path aria-label="Fiber throughput advantage over thread (%): +12; workload: RubyLLM Stream; average: 11.929841972; min: 3.08529945554; max: 21.8181818182; cells: 9" role="graphics-symbol" aria-roledescription="point" transform="translate(394.73715549683965,115)" d="M-6.124,0L0,-6.124L6.124,0L0,6.124Z" fill="#111827" stroke-width="2" opacity="0.7"/><path aria-label="Fiber throughput advantage over thread (%): +1; workload: CPU; average: 0.633281193321; min: −2.0592020592; max: 2.37275518749; cells: 9" role="graphics-symbol" aria-roledescription="point" transform="translate(191.39906147977246,161)" d="M-6.124,0L0,-6.124L6.124,0L0,6.124Z" fill="#111827" stroke-width="2" opacity="0.7"/></g><g class="mark-text role-mark layer_4_marks" role="graphics-object" aria-roledescription="text mark container"><text aria-label="Fiber throughput advantage over thread (%): +7; workload: Sleep; average_label: avg +7.4%" role="graphics-symbol" aria-roledescription="text mark" text-anchor="start" transform="translate(323.3304464291929,27)" font-family="sans-serif" font-size="12px" font-weight="bold" fill="#111827">avg +7.4%</text><text aria-label="Fiber throughput advantage over thread (%): +9; workload: Async::HTTP; average_label: avg +9.5%" role="graphics-symbol" aria-roledescription="text mark" text-anchor="start" transform="translate(360.41102649276525,73)" font-family="sans-serif" font-size="12px" font-weight="bold" fill="#111827">avg +9.5%</text><text aria-label="Fiber throughput advantage over thread (%): +12; workload: RubyLLM Stream; average_label: avg +11.9%" role="graphics-symbol" aria-roledescription="text mark" text-anchor="start" transform="translate(404.73715549683965,119)" font-family="sans-serif" font-size="12px" font-weight="bold" fill="#111827">avg +11.9%</text><text aria-label="Fiber throughput advantage over thread (%): +1; workload: CPU; average_label: avg +0.6%" role="graphics-symbol" aria-roledescription="text mark" text-anchor="start" transform="translate(201.39906147977246,165)" font-family="sans-serif" font-size="12px" font-weight="bold" fill="#111827">avg +0.6%</text></g><g class="mark-group role-title"><g transform="translate(-99.5830078125,-20)"><path class="background" aria-hidden="true" d="M0,0h0v0h0Z" pointer-events="none"/><g><g class="mark-text role-title-text" role="graphics-symbol" aria-roledescription="title" aria-label="Title text 'Solid Queue fiber over thread throughput'" pointer-events="none"><text text-anchor="start" transform="translate(0,13)" font-family="Helvetica" font-size="16px" font-weight="bold" fill="#111827" opacity="1">Solid Queue fiber over thread throughput</text></g></g><path class="foreground" aria-hidden="true" d="" pointer-events="none" display="none"/></g></g></g><path class="foreground" aria-hidden="true" d="" display="none"/></g></g></g></svg>