<svg xmlns="http://www.w3.org/2000/svg" xmlns:xlink="http://www.w3.org/1999/xlink" version="1.1" class="marks" width="831" height="247" viewBox="0 0 831 247"><rect width="831" height="247" fill="white"/><g fill="none" stroke-miterlimit="10" transform="translate(105,25)"><g class="mark-group role-frame root" role="graphics-object" aria-roledescription="group mark container"><g transform="translate(0,0)"><path class="background" aria-hidden="true" d="M0,0h720v184h-720Z"/><g><g class="mark-group role-axis" aria-hidden="true"><g transform="translate(0.5,184.5)"><path class="background" aria-hidden="true" d="M0,0h0v0h0Z" pointer-events="none"/><g><g class="mark-rule role-axis-grid" pointer-events="none"><line transform="translate(0,0)" x2="0" y2="-184" stroke="#e5e7eb" stroke-width="1" opacity="1"/><line transform="translate(51,0)" x2="0" y2="-184" stroke="#e5e7eb" stroke-width="1" opacity="1"/><line transform="translate(103,0)" x2="0" y2="-184" stroke="#e5e7eb" stroke-width="1" opacity="1"/><line transform="translate(154,0)" x2="0" y2="-184" stroke="#e5e7eb" stroke-width="1" opacity="1"/><line transform="translate(206,0)" x2="0" y2="-184" stroke="#e5e7eb" stroke-width="1" opacity="1"/><line transform="translate(257,0)" x2="0" y2="-184" stroke="#e5e7eb" stroke-width="1" opacity="1"/><line transform="translate(309,0)" x2="0" y2="-184" stroke="#e5e7eb" stroke-width="1" opacity="1"/><line transform="translate(360,0)" x2="0" y2="-184" stroke="#e5e7eb" stroke-width="1" opacity="1"/><line transform="translate(411,0)" x2="0" y2="-184" stroke="#e5e7eb" stroke-width="1" opacity="1"/><line transform="translate(463,0)" x2="0" y2="-184" stroke="#e5e7eb" stroke-width="1" opacity="1"/><line transform="translate(514,0)" x2="0" y2="-184" stroke="#e5e7eb" stroke-width="1" opacity="1"/><line transform="translate(566,0)" x2="0" y2="-184" stroke="#e5e7eb" stroke-width="1" opacity="1"/><line transform="translate(617,0)" x2="0" y2="-184" stroke="#e5e7eb" stroke-width="1" opacity="1"/><line transform="translate(669,0)" x2="0" y2="-184" stroke="#e5e7eb" stroke-width="1" opacity="1"/><line transform="translate(720,0)" x2="0" y2="-184" stroke="#e5e7eb" stroke-width="1" opacity="1"/></g></g><path class="foreground" aria-hidden="true" d="" pointer-events="none" display="none"/></g></g><g class="mark-group role-axis" aria-hidden="true"><g transform="translate(0.5,0.5)"><path class="background" aria-hidden="true" d="M0,0h0v0h0Z" pointer-events="none"/><g><g class="mark-rule role-axis-grid" pointer-events="none"><line transform="translate(0,23)" x2="720" y2="0" stroke="#e5e7eb" stroke-width="1" opacity="1"/><line transform="translate(0,69)" x2="720" y2="0" stroke="#e5e7eb" stroke-width="1" opacity="1"/><line transform="translate(0,115)" x2="720" y2="0" stroke="#e5e7eb" stroke-width="1" opacity="1"/><line transform="translate(0,161)" x2="720" y2="0" stroke="#e5e7eb" stroke-width="1" opacity="1"/></g></g><path class="foreground" aria-hidden="true" d="" pointer-events="none" display="none"/></g></g><g class="mark-group role-axis" role="graphics-symbol" aria-roledescription="axis" aria-label="X-axis titled 'Async::Job throughput advantage over Solid Queue fiber (%)' for a linear scale with values from +0 to +280"><g transform="translate(0.5,184.5)"><path class="background" aria-hidden="true" d="M0,0h0v0h0Z" pointer-events="none"/><g><g class="mark-rule role-axis-tick" pointer-events="none"><line transform="translate(0,0)" x2="0" y2="5" stroke="#9ca3af" stroke-width="1" opacity="1"/><line transform="translate(51,0)" x2="0" y2="5" stroke="#9ca3af" stroke-width="1" opacity="1"/><line transform="translate(103,0)" x2="0" y2="5" stroke="#9ca3af" stroke-width="1" opacity="1"/><line transform="translate(154,0)" x2="0" y2="5" stroke="#9ca3af" stroke-width="1" opacity="1"/><line transform="translate(206,0)" x2="0" y2="5" stroke="#9ca3af" stroke-width="1" opacity="1"/><line transform="translate(257,0)" x2="0" y2="5" stroke="#9ca3af" stroke-width="1" opacity="1"/><line transform="translate(309,0)" x2="0" y2="5" stroke="#9ca3af" stroke-width="1" opacity="1"/><line transform="translate(360,0)" x2="0" y2="5" stroke="#9ca3af" stroke-width="1" opacity="1"/><line transform="translate(411,0)" x2="0" y2="5" stroke="#9ca3af" stroke-width="1" opacity="1"/><line transform="translate(463,0)" x2="0" y2="5" stroke="#9ca3af" stroke-width="1" opacity="1"/><line transform="translate(514,0)" x2="0" y2="5" stroke="#9ca3af" stroke-width="1" opacity="1"/><line transform="translate(566,0)" x2="0" y2="5" stroke="#9ca3af" stroke-width="1" opacity="1"/><line transform="translate(617,0)" x2="0" y2="5" stroke="#9ca3af" stroke-width="1" opacity="1"/><line transform="translate(669,0)" x2="0" y2="5" stroke="#9ca3af" stroke-width="1" opacity="1"/><line transform="translate(720,0)" x2="0" y2="5" stroke="#9ca3af" stroke-width="1" opacity="1"/></g><g class="mark-text role-axis-label" pointer-events="none"><text text-anchor="start" transform="translate(0,16)" font-family="Helvetica" font-size="12px" fill="#111827" opacity="1">+0</text><text text-anchor="middle" transform="translate(51.42857142857142,16)" font-family="Helvetica" font-size="12px" fill="#111827" opacity="1">+20</text><text text-anchor="middle" transform="translate(102.85714285714285,16)" font-family="Helvetica" font-size="12px" fill="#111827" opacity="1">+40</text><text text-anchor="middle" transform="translate(154.28571428571428,16)" font-family="Helvetica" font-size="12px" fill="#111827" opacity="1">+60</text><text text-anchor="middle" transform="translate(205.7142857142857,16)" font-family="Helvetica" font-size="12px" fill="#111827" opacity="1">+80</text><text text-anchor="middle" transform="translate(257.14285714285717,16)" font-family="Helvetica" font-size="12px" fill="#111827" opacity="1">+100</text><text text-anchor="middle" transform="translate(308.57142857142856,16)" font-family="Helvetica" font-size="12px" fill="#111827" opacity="1">+120</text><text text-anchor="middle" transform="translate(360,16)" font-family="Helvetica" font-size="12px" fill="#111827" opacity="1">+140</text><text text-anchor="middle" transform="translate(411.4285714285714,16)" font-family="Helvetica" font-size="12px" fill="#111827" opacity="1">+160</text><text text-anchor="middle" transform="translate(462.8571428571429,16)" font-family="Helvetica" font-size="12px" fill="#111827" opacity="1">+180</text><text text-anchor="middle" transform="translate(514.2857142857143,16)" font-family="Helvetica" font-size="12px" fill="#111827" opacity="1">+200</text><text text-anchor="middle" transform="translate(565.7142857142857,16)" font-family="Helvetica" font-size="12px" fill="#111827" opacity="1">+220</text><text text-anchor="middle" transform="translate(617.1428571428571,16)" font-family="Helvetica" font-size="12px" fill="#111827" opacity="1">+240</text><text text-anchor="middle" transform="translate(668.5714285714286,16)" font-family="Helvetica" font-size="12px" fill="#111827" opacity="1">+260</text><text text-anchor="end" transform="translate(720,16)" font-family="Helvetica" font-size="12px" fill="#111827" opacity="1">+280</text></g><g class="mark-rule role-axis-domain" pointer-events="none"><line transform="translate(0,0)" x2="720" y2="0" stroke="#111827" stroke-width="1" opacity="1"/></g><g class="mark-text role-axis-title" pointer-events="none"><text text-anchor="middle" transform="translate(360,31)" font-family="Helvetica" font-size="12px" font-weight="bold" fill="#111827" opacity="1">Async::Job throughput advantage over Solid Queue fiber (%)</text></g></g><path class="foreground" aria-hidden="true" d="" pointer-events="none" display="none"/></g></g><g class="mark-group role-axis" role="graphics-symbol" aria-roledescription="axis" aria-label="Y-axis for a discrete scale with 4 values: Sleep, Async::HTTP, RubyLLM Stream, CPU"><g transform="translate(0.5,0.5)"><path class="background" aria-hidden="true" d="M0,0h0v0h0Z" pointer-events="none"/><g><g class="mark-rule role-axis-tick" pointer-events="none"><line transform="translate(0,23)" x2="-5" y2="0" stroke="#9ca3af" stroke-width="1" opacity="1"/><line transform="translate(0,69)" x2="-5" y2="0" stroke="#9ca3af" stroke-width="1" opacity="1"/><line transform="translate(0,115)" x2="-5" y2="0" stroke="#9ca3af" stroke-width="1" opacity="1"/><line transform="translate(0,161)" x2="-5" y2="0" stroke="#9ca3af" stroke-width="1" opacity="1"/></g><g class="mark-text role-axis-label" pointer-events="none"><text text-anchor="end" transform="translate(-7,26.5)" font-family="Helvetica" font-size="12px" fill="#111827" opacity="1">Sleep</text><text text-anchor="end" transform="translate(-7,72.5)" font-family="Helvetica" font-size="12px" fill="#111827" opacity="1">Async::HTTP</text><text text-anchor="end" transform="translate(-7,118.5)" font-family="Helvetica" font-size="12px" fill="#111827" opacity="1">RubyLLM Stream</text><text text-anchor="end" transform="translate(-7,164.5)" font-family="Helvetica" font-size="12px" fill="#111827" opacity="1">CPU</text></g><g class="mark-rule role-axis-domain" pointer-events="none"><line transform="translate(0,0)" x2="0" y2="184" stroke="#111827" stroke-width="1" opacity="1"/></g></g><path class="foreground" aria-hidden="true" d="" pointer-events="none" display="none"/></g></g><g class="mark-rule role-mark layer_0_marks" role="graphics-symbol" aria-roledescription="rule mark container"/><g class="mark-rule role-mark layer_1_marks" role="graphics-object" aria-roledescription="rule mark container"><line aria-label="Async::Job throughput advantage over Solid Queue fiber (%): +7; workload: Sleep; max: 161.128953771; min: 7.47417955143; average: 62.2220553202; cells: 9" role="graphics-symbol" aria-roledescription="rule mark" transform="translate(19.2193188465266,23)" x2="395.11227656536073" y2="0" stroke="#94a3b8" stroke-width="8" opacity="0.55"/><line aria-label="Async::Job throughput advantage over Solid Queue fiber (%): +9; workload: Async::HTTP; max: 142.922927775; min: 9.19091663338; average: 59.3314409452; cells: 9" role="graphics-symbol" aria-roledescription="rule mark" transform="translate(23.63378562868466,69)" x2="343.8823143643905" y2="0" stroke="#94a3b8" stroke-width="8" opacity="0.55"/><line aria-label="Async::Job throughput advantage over Solid Queue fiber (%): +86; workload: RubyLLM Stream; max: 276.573426573; min: 85.877318117; average: 165.098295708; cells: 9" role="graphics-symbol" aria-roledescription="rule mark" transform="translate(220.82738944365192,115)" x2="490.3614217451593" y2="0" stroke="#94a3b8" stroke-width="8" opacity="0.55"/><line aria-label="Async::Job throughput advantage over Solid Queue fiber (%): +7; workload: CPU; max: 14.2974004726; min: 6.91275167785; average: 10.5076444607; cells: 9" role="graphics-symbol" aria-roledescription="rule mark" transform="translate(17.775647171620303,161)" x2="18.989096900886008" y2="0" stroke="#94a3b8" stroke-width="8" opacity="0.55"/></g><g class="mark-symbol role-mark layer_2_marks" role="graphics-object" aria-roledescription="symbol mark container"><path aria-label="Async::Job throughput advantage over Solid Queue fiber (%): +32; workload: Sleep; concurrency: 5; processes: 1 proc; value: 32.1348314607" role="graphics-symbol" aria-roledescription="point" transform="translate(82.63242375601928,23)" d="M3.808,0A3.808,3.808,0,1,1,-3.808,0A3.808,3.808,0,1,1,3.808,0" fill="#72b7b2" stroke-width="2" opacity="0.72"/><path aria-label="Async::Job throughput advantage over Solid Queue fiber (%): +57; workload: Sleep; concurrency: 10; processes: 1 proc; value: 56.9158706833" role="graphics-symbol" aria-roledescription="point" transform="translate(146.35509604282566,23)" d="M3.808,0A3.808,3.808,0,1,1,-3.808,0A3.808,3.808,0,1,1,3.808,0" fill="#72b7b2" stroke-width="2" opacity="0.72"/><path aria-label="Async::Job throughput advantage over Solid Queue fiber (%): +100; workload: Sleep; concurrency: 25; processes: 1 proc; value: 99.7153139604" role="graphics-symbol" aria-roledescription="point" transform="translate(256.410807326637,23)" d="M3.808,0A3.808,3.808,0,1,1,-3.808,0A3.808,3.808,0,1,1,3.808,0" fill="#72b7b2" stroke-width="2" opacity="0.72"/><path aria-label="Async::Job throughput advantage over Solid Queue fiber (%): +161; workload: Sleep; concurrency: 50; processes: 1 proc; value: 161.128953771" role="graphics-symbol" aria-roledescription="point" transform="translate(414.33159541188735,23)" d="M3.808,0A3.808,3.808,0,1,1,-3.808,0A3.808,3.808,0,1,1,3.808,0" fill="#72b7b2" stroke-width="2" opacity="0.72"/><path aria-label="Async::Job throughput advantage over Solid Queue fiber (%): +27; workload: Sleep; concurrency: 5; processes: 2 proc; value: 27.2097053726" role="graphics-symbol" aria-roledescription="point" transform="translate(69.96781381530079,23)" d="M3.808,0A3.808,3.808,0,1,1,-3.808,0A3.808,3.808,0,1,1,3.808,0" fill="#72b7b2" stroke-width="2" opacity="0.72"/><path aria-label="Async::Job throughput advantage over Solid Queue fiber (%): +56; workload: Sleep; concurrency: 10; processes: 2 proc; value: 56.1830193296" role="graphics-symbol" aria-roledescription="point" transform="translate(144.47062113320987,23)" d="M3.808,0A3.808,3.808,0,1,1,-3.808,0A3.808,3.808,0,1,1,3.808,0" fill="#72b7b2" stroke-width="2" opacity="0.72"/><path aria-label="Async::Job throughput advantage over Solid Queue fiber (%): +98; workload: Sleep; concurrency: 25; processes: 2 proc; value: 98.0957646119" role="graphics-symbol" aria-roledescription="point" transform="translate(252.24625185926217,23)" d="M3.808,0A3.808,3.808,0,1,1,-3.808,0A3.808,3.808,0,1,1,3.808,0" fill="#72b7b2" stroke-width="2" opacity="0.72"/><path aria-label="Async::Job throughput advantage over Solid Queue fiber (%): +7; workload: Sleep; concurrency: 5; processes: 6 proc; value: 7.47417955143" role="graphics-symbol" aria-roledescription="point" transform="translate(19.2193188465266,23)" d="M3.808,0A3.808,3.808,0,1,1,-3.808,0A3.808,3.808,0,1,1,3.808,0" fill="#72b7b2" stroke-width="2" opacity="0.72"/><path aria-label="Async::Job throughput advantage over Solid Queue fiber (%): +21; workload: Sleep; concurrency: 10; processes: 6 proc; value: 21.1408591409" role="graphics-symbol" aria-roledescription="point" transform="translate(54.36220921935205,23)" d="M3.808,0A3.808,3.808,0,1,1,-3.808,0A3.808,3.808,0,1,1,3.808,0" fill="#72b7b2" stroke-width="2" opacity="0.72"/><path aria-label="Async::Job throughput advantage over Solid Queue fiber (%): +31; workload: Async::HTTP; concurrency: 5; processes: 1 proc; value: 30.7188569728" role="graphics-symbol" aria-roledescription="point" transform="translate(78.99134650139266,69)" d="M3.808,0A3.808,3.808,0,1,1,-3.808,0A3.808,3.808,0,1,1,3.808,0" fill="#4c78a8" stroke-width="2" opacity="0.72"/><path aria-label="Async::Job throughput advantage over Solid Queue fiber (%): +54; workload: Async::HTTP; concurrency: 10; processes: 1 proc; value: 53.5775204237" role="graphics-symbol" aria-roledescription="point" transform="translate(137.77076680389365,69)" d="M3.808,0A3.808,3.808,0,1,1,-3.808,0A3.808,3.808,0,1,1,3.808,0" fill="#4c78a8" stroke-width="2" opacity="0.72"/><path aria-label="Async::Job throughput advantage over Solid Queue fiber (%): +100; workload: Async::HTTP; concurrency: 25; processes: 1 proc; value: 99.6587030717" role="graphics-symbol" aria-roledescription="point" transform="translate(256.26523647001454,69)" d="M3.808,0A3.808,3.808,0,1,1,-3.808,0A3.808,3.808,0,1,1,3.808,0" fill="#4c78a8" stroke-width="2" opacity="0.72"/><path aria-label="Async::Job throughput advantage over Solid Queue fiber (%): +143; workload: Async::HTTP; concurrency: 50; processes: 1 proc; value: 142.922927775" role="graphics-symbol" aria-roledescription="point" transform="translate(367.51609999307516,69)" d="M3.808,0A3.808,3.808,0,1,1,-3.808,0A3.808,3.808,0,1,1,3.808,0" fill="#4c78a8" stroke-width="2" opacity="0.72"/><path aria-label="Async::Job throughput advantage over Solid Queue fiber (%): +31; workload: Async::HTTP; concurrency: 5; processes: 2 proc; value: 31.4583007354" role="graphics-symbol" aria-roledescription="point" transform="translate(80.8927733196236,69)" d="M3.808,0A3.808,3.808,0,1,1,-3.808,0A3.808,3.808,0,1,1,3.808,0" fill="#4c78a8" stroke-width="2" opacity="0.72"/><path aria-label="Async::Job throughput advantage over Solid Queue fiber (%): +48; workload: Async::HTTP; concurrency: 10; processes: 2 proc; value: 47.7850399419" role="graphics-symbol" aria-roledescription="point" transform="translate(122.87581699346404,69)" d="M3.808,0A3.808,3.808,0,1,1,-3.808,0A3.808,3.808,0,1,1,3.808,0" fill="#4c78a8" stroke-width="2" opacity="0.72"/><path aria-label="Async::Job throughput advantage over Solid Queue fiber (%): +98; workload: Async::HTTP; concurrency: 25; processes: 2 proc; value: 97.9146459748" role="graphics-symbol" aria-roledescription="point" transform="translate(251.7805182208674,69)" d="M3.808,0A3.808,3.808,0,1,1,-3.808,0A3.808,3.808,0,1,1,3.808,0" fill="#4c78a8" stroke-width="2" opacity="0.72"/><path aria-label="Async::Job throughput advantage over Solid Queue fiber (%): +9; workload: Async::HTTP; concurrency: 5; processes: 6 proc; value: 9.19091663338" role="graphics-symbol" aria-roledescription="point" transform="translate(23.63378562868466,69)" d="M3.808,0A3.808,3.808,0,1,1,-3.808,0A3.808,3.808,0,1,1,3.808,0" fill="#4c78a8" stroke-width="2" opacity="0.72"/><path aria-label="Async::Job throughput advantage over Solid Queue fiber (%): +21; workload: Async::HTTP; concurrency: 10; processes: 6 proc; value: 20.7560569782" role="graphics-symbol" aria-roledescription="point" transform="translate(53.372717943961,69)" d="M3.808,0A3.808,3.808,0,1,1,-3.808,0A3.808,3.808,0,1,1,3.808,0" fill="#4c78a8" stroke-width="2" opacity="0.72"/><path aria-label="Async::Job throughput advantage over Solid Queue fiber (%): +112; workload: RubyLLM Stream; concurrency: 5; processes: 1 proc; value: 111.656441718" role="graphics-symbol" aria-roledescription="point" transform="translate(287.116564417178,115)" d="M3.808,0A3.808,3.808,0,1,1,-3.808,0A3.808,3.808,0,1,1,3.808,0" fill="#e45756" stroke-width="2" opacity="0.72"/><path aria-label="Async::Job throughput advantage over Solid Queue fiber (%): +156; workload: RubyLLM Stream; concurrency: 10; processes: 1 proc; value: 156.451612903" role="graphics-symbol" aria-roledescription="point" transform="translate(402.3041474654377,115)" d="M3.808,0A3.808,3.808,0,1,1,-3.808,0A3.808,3.808,0,1,1,3.808,0" fill="#e45756" stroke-width="2" opacity="0.72"/><path aria-label="Async::Job throughput advantage over Solid Queue fiber (%): +194; workload: RubyLLM Stream; concurrency: 25; processes: 1 proc; value: 193.650793651" role="graphics-symbol" aria-roledescription="point" transform="translate(497.95918367346945,115)" d="M3.808,0A3.808,3.808,0,1,1,-3.808,0A3.808,3.808,0,1,1,3.808,0" fill="#e45756" stroke-width="2" opacity="0.72"/><path aria-label="Async::Job throughput advantage over Solid Queue fiber (%): +197; workload: RubyLLM Stream; concurrency: 50; processes: 1 proc; value: 196.517412935" role="graphics-symbol" aria-roledescription="point" transform="translate(505.33049040511736,115)" d="M3.808,0A3.808,3.808,0,1,1,-3.808,0A3.808,3.808,0,1,1,3.808,0" fill="#e45756" stroke-width="2" opacity="0.72"/><path aria-label="Async::Job throughput advantage over Solid Queue fiber (%): +117; workload: RubyLLM Stream; concurrency: 5; processes: 2 proc; value: 117.064846416" role="graphics-symbol" aria-roledescription="point" transform="translate(301.023890784983,115)" d="M3.808,0A3.808,3.808,0,1,1,-3.808,0A3.808,3.808,0,1,1,3.808,0" fill="#e45756" stroke-width="2" opacity="0.72"/><path aria-label="Async::Job throughput advantage over Solid Queue fiber (%): +150; workload: RubyLLM Stream; concurrency: 10; processes: 2 proc; value: 149.853372434" role="graphics-symbol" aria-roledescription="point" transform="translate(385.3372434017595,115)" d="M3.808,0A3.808,3.808,0,1,1,-3.808,0A3.808,3.808,0,1,1,3.808,0" fill="#e45756" stroke-width="2" opacity="0.72"/><path aria-label="Async::Job throughput advantage over Solid Queue fiber (%): +277; workload: RubyLLM Stream; concurrency: 25; processes: 2 proc; value: 276.573426573" role="graphics-symbol" aria-roledescription="point" transform="translate(711.1888111888112,115)" d="M3.808,0A3.808,3.808,0,1,1,-3.808,0A3.808,3.808,0,1,1,3.808,0" fill="#e45756" stroke-width="2" opacity="0.72"/><path aria-label="Async::Job throughput advantage over Solid Queue fiber (%): +86; workload: RubyLLM Stream; concurrency: 5; processes: 6 proc; value: 85.877318117" role="graphics-symbol" aria-roledescription="point" transform="translate(220.82738944365192,115)" d="M3.808,0A3.808,3.808,0,1,1,-3.808,0A3.808,3.808,0,1,1,3.808,0" fill="#e45756" stroke-width="2" opacity="0.72"/><path aria-label="Async::Job throughput advantage over Solid Queue fiber (%): +198; workload: RubyLLM Stream; concurrency: 10; processes: 6 proc; value: 198.23943662" role="graphics-symbol" aria-roledescription="point" transform="translate(509.7585513078472,115)" d="M3.808,0A3.808,3.808,0,1,1,-3.808,0A3.808,3.808,0,1,1,3.808,0" fill="#e45756" stroke-width="2" opacity="0.72"/><path aria-label="Async::Job throughput advantage over Solid Queue fiber (%): +14; workload: CPU; concurrency: 5; processes: 1 proc; value: 14.1480508103" role="graphics-symbol" aria-roledescription="point" transform="translate(36.38070208372443,161)" d="M3.808,0A3.808,3.808,0,1,1,-3.808,0A3.808,3.808,0,1,1,3.808,0" fill="#f58518" stroke-width="2" opacity="0.72"/><path aria-label="Async::Job throughput advantage over Solid Queue fiber (%): +10; workload: CPU; concurrency: 10; processes: 1 proc; value: 9.9281791297" role="graphics-symbol" aria-roledescription="point" transform="translate(25.52960347637151,161)" d="M3.808,0A3.808,3.808,0,1,1,-3.808,0A3.808,3.808,0,1,1,3.808,0" fill="#f58518" stroke-width="2" opacity="0.72"/><path aria-label="Async::Job throughput advantage over Solid Queue fiber (%): +8; workload: CPU; concurrency: 25; processes: 1 proc; value: 7.59966777409" role="graphics-symbol" aria-roledescription="point" transform="translate(19.542002847650707,161)" d="M3.808,0A3.808,3.808,0,1,1,-3.808,0A3.808,3.808,0,1,1,3.808,0" fill="#f58518" stroke-width="2" opacity="0.72"/><path aria-label="Async::Job throughput advantage over Solid Queue fiber (%): +8; workload: CPU; concurrency: 50; processes: 1 proc; value: 8.1512605042" role="graphics-symbol" aria-roledescription="point" transform="translate(20.96038415366144,161)" d="M3.808,0A3.808,3.808,0,1,1,-3.808,0A3.808,3.808,0,1,1,3.808,0" fill="#f58518" stroke-width="2" opacity="0.72"/><path aria-label="Async::Job throughput advantage over Solid Queue fiber (%): +12; workload: CPU; concurrency: 5; processes: 2 proc; value: 12.4276787781" role="graphics-symbol" aria-roledescription="point" transform="translate(31.956888286441615,161)" d="M3.808,0A3.808,3.808,0,1,1,-3.808,0A3.808,3.808,0,1,1,3.808,0" fill="#f58518" stroke-width="2" opacity="0.72"/><path aria-label="Async::Job throughput advantage over Solid Queue fiber (%): +7; workload: CPU; concurrency: 10; processes: 2 proc; value: 6.91275167785" role="graphics-symbol" aria-roledescription="point" transform="translate(17.775647171620303,161)" d="M3.808,0A3.808,3.808,0,1,1,-3.808,0A3.808,3.808,0,1,1,3.808,0" fill="#f58518" stroke-width="2" opacity="0.72"/><path aria-label="Async::Job throughput advantage over Solid Queue fiber (%): +8; workload: CPU; concurrency: 25; processes: 2 proc; value: 8.42152668318" role="graphics-symbol" aria-roledescription="point" transform="translate(21.65535432817578,161)" d="M3.808,0A3.808,3.808,0,1,1,-3.808,0A3.808,3.808,0,1,1,3.808,0" fill="#f58518" stroke-width="2" opacity="0.72"/><path aria-label="Async::Job throughput advantage over Solid Queue fiber (%): +13; workload: CPU; concurrency: 5; processes: 6 proc; value: 12.6822843165" role="graphics-symbol" aria-roledescription="point" transform="translate(32.61158824240955,161)" d="M3.808,0A3.808,3.808,0,1,1,-3.808,0A3.808,3.808,0,1,1,3.808,0" fill="#f58518" stroke-width="2" opacity="0.72"/><path aria-label="Async::Job throughput advantage over Solid Queue fiber (%): +14; workload: CPU; concurrency: 10; processes: 6 proc; value: 14.2974004726" role="graphics-symbol" aria-roledescription="point" transform="translate(36.76474407250631,161)" d="M3.808,0A3.808,3.808,0,1,1,-3.808,0A3.808,3.808,0,1,1,3.808,0" fill="#f58518" stroke-width="2" opacity="0.72"/></g><g class="mark-symbol role-mark layer_3_marks" role="graphics-object" aria-roledescription="symbol mark container"><path aria-label="Async::Job throughput advantage over Solid Queue fiber (%): +62; workload: Sleep; average: 62.2220553202; min: 7.47417955143; max: 161.128953771; cells: 9" role="graphics-symbol" aria-roledescription="point" transform="translate(159.99957082344673,23)" d="M-6.124,0L0,-6.124L6.124,0L0,6.124Z" fill="#111827" stroke-width="2" opacity="0.7"/><path aria-label="Async::Job throughput advantage over Solid Queue fiber (%): +59; workload: Async::HTTP; average: 59.3314409452; min: 9.19091663338; max: 142.922927775; cells: 9" role="graphics-symbol" aria-roledescription="point" transform="translate(152.56656243055298,69)" d="M-6.124,0L0,-6.124L6.124,0L0,6.124Z" fill="#111827" stroke-width="2" opacity="0.7"/><path aria-label="Async::Job throughput advantage over Solid Queue fiber (%): +165; workload: RubyLLM Stream; average: 165.098295708; min: 85.877318117; max: 276.573426573; cells: 9" role="graphics-symbol" aria-roledescription="point" transform="translate(424.5384746764728,115)" d="M-6.124,0L0,-6.124L6.124,0L0,6.124Z" fill="#111827" stroke-width="2" opacity="0.7"/><path aria-label="Async::Job throughput advantage over Solid Queue fiber (%): +11; workload: CPU; average: 10.5076444607; min: 6.91275167785; max: 14.2974004726; cells: 9" role="graphics-symbol" aria-roledescription="point" transform="translate(27.01965718472907,161)" d="M-6.124,0L0,-6.124L6.124,0L0,6.124Z" fill="#111827" stroke-width="2" opacity="0.7"/></g><g class="mark-text role-mark layer_4_marks" role="graphics-object" aria-roledescription="text mark container"><text aria-label="Async::Job throughput advantage over Solid Queue fiber (%): +62; workload: Sleep; average_label: avg +62.2%" role="graphics-symbol" aria-roledescription="text mark" text-anchor="start" transform="translate(169.99957082344673,27)" font-family="sans-serif" font-size="12px" font-weight="bold" fill="#111827">avg +62.2%</text><text aria-label="Async::Job throughput advantage over Solid Queue fiber (%): +59; workload: Async::HTTP; average_label: avg +59.3%" role="graphics-symbol" aria-roledescription="text mark" text-anchor="start" transform="translate(162.56656243055298,73)" font-family="sans-serif" font-size="12px" font-weight="bold" fill="#111827">avg +59.3%</text><text aria-label="Async::Job throughput advantage over Solid Queue fiber (%): +165; workload: RubyLLM Stream; average_label: avg +165.1%" role="graphics-symbol" aria-roledescription="text mark" text-anchor="start" transform="translate(434.5384746764728,119)" font-family="sans-serif" font-size="12px" font-weight="bold" fill="#111827">avg +165.1%</text><text aria-label="Async::Job throughput advantage over Solid Queue fiber (%): +11; workload: CPU; average_label: avg +10.5%" role="graphics-symbol" aria-roledescription="text mark" text-anchor="start" transform="translate(37.01965718472907,165)" font-family="sans-serif" font-size="12px" font-weight="bold" fill="#111827">avg +10.5%</text></g><g class="mark-group role-title"><g transform="translate(-99.5830078125,-20)"><path class="background" aria-hidden="true" d="M0,0h0v0h0Z" pointer-events="none"/><g><g class="mark-text role-title-text" role="graphics-symbol" aria-roledescription="title" aria-label="Title text 'Async::Job over Solid Queue fiber throughput'" pointer-events="none"><text text-anchor="start" transform="translate(0,13)" font-family="Helvetica" font-size="16px" font-weight="bold" fill="#111827" opacity="1">Async::Job over Solid Queue fiber throughput</text></g></g><path class="foreground" aria-hidden="true" d="" pointer-events="none" display="none"/></g></g></g><path class="foreground" aria-hidden="true" d="" display="none"/></g></g></g></svg>